<svg id="ewUgJErylzs1" xmlns="http://www.w3.org/2000/svg" xmlns:xlink="http://www.w3.org/1999/xlink" viewBox="0 0 500 300" shape-rendering="geometricPrecision" text-rendering="geometricPrecision" project-id="6477644c993f4840a73e4bc5b9be231a" export-id="04d5b9d1fde74ad5b98b213f453d5f72" cached="false"><rect width="131.241414" height="116.495188" rx="0" ry="0" transform="translate(-13.55117-20.58219)" fill="#d2dbed" stroke-width="0"/><rect width="126.411266" height="191.700941" rx="0" ry="0" transform="translate(123.588734-20.582189)" fill="#d2dbed" stroke-width="0"/><rect width="184.327828" height="253.635092" rx="0" ry="0" transform="matrix(-.003831 1.067492-.643269-.002309 118.804468 103.231496)" fill="#d2dbed" stroke-width="0"/><rect width="305.246884" height="54.561037" rx="0" ry="0" transform="translate(123.588734 177.017243)" fill="#d2dbed" stroke-width="0"/><rect width="230.04113" height="116.495188" rx="0" ry="0" transform="translate(256.30477-20.58219)" fill="#d2dbed" stroke-width="0"/><rect width="147.462263" height="66.358019" rx="0" ry="0" transform="translate(256.304771 104.760734)" fill="#d2dbed" stroke-width="0"/><rect width="343.587072" height="117.96981" rx="0" ry="0" transform="matrix(1.111588 0 0 0.579336 123.588734 237.64175)" fill="#d2dbed" stroke-width="0"/><rect width="80.497246" height="66.358019" rx="0" ry="0" transform="translate(411.053578 104.760734)" fill="#d2dbed" stroke-width="0"/><rect width="49.346487" height="54.561037" rx="0" ry="0" transform="matrix(1.307003 0 0 1 437.873833 177.017243)" fill="#d2dbed" stroke-width="0"/><g><rect width="499.897071" height="99.468923" rx="0" ry="0" transform="translate(-13.551169-126.384148)" fill="#d2dbed" stroke-width="0"/></g></svg>
