<?xml version="1.0" encoding="UTF-8" standalone="no"?><!DOCTYPE svg PUBLIC "-//W3C//DTD SVG 1.1//EN" "http://www.w3.org/Graphics/SVG/1.1/DTD/svg11.dtd"><svg width="100%" height="100%" viewBox="0 0 200 50" version="1.1" xmlns="http://www.w3.org/2000/svg" xmlns:xlink="http://www.w3.org/1999/xlink" xml:space="preserve" xmlns:serif="http://www.serif.com/" style="fill-rule:evenodd;clip-rule:evenodd;stroke-linejoin:round;stroke-miterlimit:2;"><path d="M15.915,39.317c0,-0.001 -20.253,-7.305 -11.983,-29.171c14.473,5.572 16.212,19.805 11.983,29.17Z" style="fill:#beb355;"/><path d="M20.828,25.276c0,0 -3.234,-13.549 11.388,-16.276c2.268,10.371 -5.638,15.312 -11.388,16.276Z" style="fill:#beb355;"/><path d="M20.335,40.933c0,-0.001 -1.527,-17.51 17.447,-17.605c0.42,12.128 -8.251,18.052 -17.447,17.604Z" style="fill:#beb355;"/><path d="M67.798,10.579c0.062,0.246 0.128,0.739 0.207,1.473c0.076,0.735 0.116,1.272 0.116,1.606c0,0.128 -0.032,0.286 -0.089,0.475c-0.371,-0.009 -0.688,-0.044 -0.945,-0.101c-0.657,-1.007 -1.116,-1.637 -1.386,-1.896c-0.498,-0.48 -1.139,-0.889 -1.924,-1.223c-0.579,-0.25 -1.241,-0.374 -1.992,-0.374c-1.439,0 -2.71,0.643 -3.804,1.931c-1.096,1.289 -1.643,3.207 -1.643,5.749c0,1.192 0.216,2.353 0.64,3.48c0.429,1.126 1.069,2.006 1.92,2.647c0.857,0.639 1.859,0.96 3.015,0.96c0.561,0 1.157,-0.071 1.784,-0.221c0.322,-0.065 0.579,-0.202 0.777,-0.409c0.137,-0.14 0.229,-0.342 0.274,-0.62c0.066,-0.497 0.102,-1.205 0.102,-2.124c0,-0.897 -0.014,-1.509 -0.04,-1.843c-0.058,-0.133 -0.12,-0.216 -0.172,-0.251c-0.058,-0.039 -0.235,-0.101 -0.526,-0.189l-1.152,-0.308c-0.247,-0.062 -0.402,-0.136 -0.463,-0.22c-0.018,-0.11 -0.027,-0.194 -0.027,-0.246c0,-0.119 0.031,-0.286 0.092,-0.502c0.155,-0.052 0.261,-0.079 0.323,-0.079c0.94,0 1.753,0.035 2.441,0.106c0.243,0.017 0.508,0.026 0.79,0.026l2.044,-0.026l0.865,-0.027c0.107,-0.009 0.394,0 0.87,0.027c0.009,0.224 0.013,0.413 0.013,0.567c0,0.093 -0.031,0.202 -0.093,0.321c-0.145,0.088 -0.396,0.194 -0.75,0.321c-0.353,0.132 -0.552,0.216 -0.596,0.26c-0.066,0.066 -0.114,0.176 -0.141,0.321c-0.027,0.145 -0.04,0.66 -0.04,1.535c0,1.011 -0.004,1.619 -0.013,1.817c-0.031,0.633 -0.048,0.994 -0.048,1.082c0,0.316 -0.044,0.514 -0.133,0.594c-0.238,0.237 -0.989,0.51 -2.243,0.818c-1.253,0.303 -2.715,0.457 -4.379,0.457c-1.161,0 -2.172,-0.092 -3.033,-0.277c-0.856,-0.185 -1.584,-0.458 -2.189,-0.818c-0.812,-0.484 -1.506,-1.064 -2.084,-1.755c-0.578,-0.686 -1.007,-1.43 -1.293,-2.23c-0.398,-1.131 -0.596,-2.261 -0.596,-3.387c0,-1.262 0.296,-2.543 0.882,-3.84c0.429,-0.937 1.034,-1.782 1.815,-2.534c0.781,-0.752 1.757,-1.35 2.931,-1.799c1.17,-0.445 2.451,-0.668 3.828,-0.668c0.172,0 0.454,0.022 0.838,0.065c1.056,0 2.036,0.133 2.949,0.392c0.914,0.264 1.674,0.576 2.278,0.937Zm3.077,14.973c0.115,-0.097 0.261,-0.163 0.442,-0.207c0.437,-0.092 0.856,-0.269 1.253,-0.515c0.08,-0.206 0.115,-0.902 0.115,-2.089c0,-2.173 -0.044,-3.642 -0.141,-4.408c-0.018,-0.136 -0.084,-0.254 -0.207,-0.36c-0.217,-0.11 -0.508,-0.211 -0.879,-0.295c-0.172,-0.044 -0.274,-0.136 -0.309,-0.286l-0.04,-0.475c0.64,-0.088 1.214,-0.303 1.735,-0.651c0.517,-0.347 0.905,-0.704 1.161,-1.064c0.142,-0.198 0.261,-0.348 0.362,-0.449l0.905,-0.04c0.044,0.198 0.066,0.361 0.066,0.489c0,0.097 -0.004,0.211 -0.013,0.347c-0.009,0.304 -0.013,0.55 -0.013,0.748c0,0.097 0.004,0.453 0.013,1.073c0.353,-0.602 0.614,-1.007 0.777,-1.214c0.075,-0.092 0.304,-0.303 0.685,-0.629c0.295,-0.216 0.626,-0.325 0.997,-0.325c0.455,0 0.852,0.153 1.188,0.466c0.335,0.307 0.507,0.664 0.507,1.069c0,0.404 -0.128,0.765 -0.384,1.091c-0.256,0.321 -0.591,0.479 -1.015,0.479c-0.371,0 -0.76,-0.154 -1.166,-0.462c-0.238,-0.189 -0.433,-0.285 -0.578,-0.285l-0.092,0.013c-0.182,0.061 -0.345,0.224 -0.491,0.492c-0.242,0.427 -0.362,0.876 -0.362,1.338l0.027,0.347c0.031,0.638 0.057,2.129 0.074,4.473c0.027,0.216 0.111,0.432 0.248,0.647c0.154,0.119 0.314,0.202 0.473,0.255c0.158,0.053 0.436,0.097 0.834,0.128c0.397,0.035 0.635,0.092 0.724,0.162c0.084,0.075 0.128,0.194 0.128,0.357c0,0.092 -0.027,0.215 -0.075,0.374l-1.219,0l-2.468,-0.132c-0.622,0 -1.187,0.026 -1.695,0.079l-0.22,0c-0.063,0 -0.508,0.022 -1.347,0.066c-0.026,-0.141 -0.04,-0.242 -0.04,-0.312c0,-0.066 0.014,-0.167 0.04,-0.295Zm20.567,-1.791l0.296,0.194c0.08,0.057 0.129,0.132 0.146,0.216l0.013,0.066c-0.208,0.765 -0.481,1.288 -0.816,1.579c-0.336,0.286 -0.756,0.431 -1.254,0.431c-0.508,0 -0.949,-0.141 -1.316,-0.418c-0.366,-0.281 -0.698,-0.77 -1.002,-1.478c-0.371,0.655 -0.892,1.148 -1.563,1.478c-0.671,0.33 -1.496,0.497 -2.472,0.497c-0.896,0 -1.554,-0.189 -1.977,-0.563c-0.424,-0.374 -0.636,-0.867 -0.636,-1.474c0,-0.285 0.066,-0.571 0.19,-0.866c0.123,-0.291 0.326,-0.581 0.609,-0.866c0.278,-0.291 0.728,-0.608 1.351,-0.951c0.092,-0.049 0.424,-0.198 0.98,-0.435l3.222,-1.289c0.027,-0.325 0.04,-0.66 0.04,-0.994c0,-1.157 -0.141,-1.949 -0.429,-2.371c-0.172,-0.255 -0.471,-0.387 -0.904,-0.387c-0.433,0 -0.83,0.083 -1.192,0.246c-0.362,0.163 -0.623,0.374 -0.786,0.629c-0.123,0.189 -0.225,0.55 -0.313,1.074c-0.058,0.378 -0.115,0.593 -0.168,0.655c-0.128,0.163 -0.362,0.312 -0.702,0.444c-0.34,0.132 -0.574,0.229 -0.693,0.29c-0.468,0.225 -0.839,0.335 -1.112,0.335c-0.12,-0.101 -0.182,-0.246 -0.182,-0.436c0,-0.492 0.102,-0.91 0.31,-1.267c0.313,-0.497 0.781,-0.981 1.403,-1.447c0.627,-0.471 1.21,-0.796 1.753,-0.985c0.742,-0.242 1.646,-0.361 2.715,-0.361c0.693,0 1.285,0.128 1.779,0.378c0.499,0.256 0.843,0.63 1.037,1.131c0.195,0.497 0.287,1.395 0.287,2.692l-0.035,2.124l0.027,1.562l0,0.4c0,0.361 0.048,0.607 0.145,0.739c0.102,0.132 0.23,0.198 0.384,0.198c0.093,0 0.177,-0.022 0.243,-0.074l0.388,-0.607l0.234,-0.089Zm-4.242,-2.991c-0.49,0.163 -1.046,0.436 -1.66,0.818c-0.618,0.383 -1.046,0.766 -1.288,1.153c-0.172,0.286 -0.261,0.634 -0.261,1.042c0,0.37 0.114,0.678 0.34,0.915c0.22,0.242 0.481,0.365 0.773,0.365c0.485,0 0.896,-0.14 1.231,-0.413c0.455,-0.37 0.724,-0.664 0.799,-0.884c0.08,-0.22 0.12,-0.84 0.12,-1.861c0,-0.378 -0.019,-0.756 -0.054,-1.135Zm5.576,4.562c0.066,-0.035 0.163,-0.057 0.283,-0.066c0.507,-0.031 0.913,-0.123 1.218,-0.268c0.057,-0.027 0.097,-0.084 0.106,-0.167c0.013,-0.089 0.04,-0.867 0.075,-2.345l0,-0.748l0.009,-1.329l-0.009,-1.38l0,-0.308c0,-0.405 -0.093,-0.704 -0.278,-0.893c-0.186,-0.194 -0.671,-0.405 -1.457,-0.629l0,-0.528c0.163,-0.04 0.358,-0.088 0.583,-0.141c0.794,-0.163 1.448,-0.396 1.964,-0.695c0.398,-0.233 0.791,-0.58 1.179,-1.042l0.711,0l0,0.202l0.039,1.034l-0.013,0.475l0.026,0.233c0.817,-0.647 1.502,-1.069 2.049,-1.276c0.548,-0.206 1.174,-0.308 1.881,-0.308c0.684,0 1.336,0.146 1.972,0.436c0.636,0.295 1.161,0.783 1.585,1.469c0.614,-0.594 1.126,-1.007 1.541,-1.25c0.283,-0.162 0.671,-0.307 1.17,-0.43c0.494,-0.123 0.962,-0.19 1.404,-0.19c1.196,0 2.145,0.361 2.842,1.083c0.698,0.734 1.047,1.72 1.047,2.965l0,2.049c0,0.422 -0.014,1.148 -0.036,2.177l0,0.995c0,0.171 0.049,0.338 0.155,0.501c0.336,0.145 0.623,0.242 0.865,0.286c0.172,0.022 0.336,0.084 0.49,0.18c0.018,0.154 0.04,0.281 0.066,0.383l-0.013,0.259c-0.242,0.044 -0.414,0.067 -0.516,0.067c-0.071,0 -0.279,-0.023 -0.627,-0.058c-0.349,-0.039 -0.79,-0.061 -1.329,-0.061c-1.298,0 -2.335,0.043 -3.103,0.132c-0.058,-0.216 -0.089,-0.388 -0.089,-0.519l0.013,-0.181c0.111,-0.057 0.482,-0.207 1.113,-0.448c0.111,-0.115 0.177,-0.212 0.194,-0.3c0.04,-0.211 0.062,-0.672 0.062,-1.376l-0.062,-3.634c-0.008,-0.611 -0.057,-1.117 -0.145,-1.513c-0.084,-0.4 -0.213,-0.712 -0.38,-0.941c-0.168,-0.229 -0.393,-0.414 -0.68,-0.563c-0.282,-0.145 -0.582,-0.22 -0.892,-0.22c-0.48,0 -0.975,0.136 -1.474,0.409c-0.499,0.269 -0.944,0.682 -1.333,1.232l-0.013,0.373l0.026,1.65l-0.026,1.35l0,1.29l-0.014,1.148c0,0.567 0.058,0.901 0.173,1.002c0.172,0.163 0.591,0.282 1.266,0.348l0.397,0.145c0.071,0.198 0.107,0.352 0.107,0.461c0,0.062 -0.018,0.163 -0.053,0.309l-0.375,-0.009l-0.517,0l-0.269,-0.013c-0.614,-0.062 -1.25,-0.097 -1.903,-0.106l-1.386,-0.026c-0.336,0 -0.918,0.039 -1.744,0.119l-0.234,-0.04l-0.013,-0.761c0.261,-0.079 0.725,-0.141 1.4,-0.194c0.039,-0.008 0.097,-0.026 0.167,-0.053c0.092,-0.109 0.15,-0.202 0.168,-0.281c0.044,-0.171 0.062,-0.519 0.062,-1.043l-0.009,-2.617l0.022,-0.695c0,-1.341 -0.044,-2.168 -0.142,-2.489c-0.119,-0.409 -0.37,-0.748 -0.754,-1.012c-0.384,-0.26 -0.843,-0.391 -1.377,-0.391c-0.698,0 -1.307,0.167 -1.823,0.497c-0.521,0.33 -0.817,0.624 -0.892,0.879c-0.009,0.106 -0.014,0.181 -0.014,0.233l0.014,0.128l0,0.132c0,0.075 -0.022,0.198 -0.066,0.361l0.039,3.699l0.013,1.931c0,0.07 0.01,0.18 0.023,0.334l0.066,0.194c0.243,0.079 0.45,0.131 0.622,0.167c0.318,0.071 0.561,0.145 0.724,0.233c0.027,0.145 0.04,0.251 0.04,0.308c0,0.114 -0.036,0.273 -0.106,0.48c-0.137,0.008 -0.238,0.013 -0.296,0.013c-0.097,0 -0.525,-0.04 -1.293,-0.119l-1.413,-0.013c-0.671,0 -1.483,0.048 -2.441,0.145l-0.376,-0.013c-0.017,-0.141 -0.034,-0.299 -0.052,-0.48c0,-0.075 0.022,-0.189 0.066,-0.334Zm32.941,-8.543c0.551,0.533 0.962,1.145 1.236,1.835c0.269,0.691 0.406,1.342 0.406,1.953c0,1.153 -0.177,2.081 -0.53,2.784c-0.534,1.065 -1.254,1.852 -2.159,2.358c-0.904,0.506 -1.959,0.761 -3.156,0.761c-1.346,0 -2.485,-0.303 -3.421,-0.902c-0.936,-0.602 -1.603,-1.284 -2.004,-2.05c-0.402,-0.765 -0.601,-1.715 -0.601,-2.85c0,-0.572 0.093,-1.152 0.282,-1.733c0.19,-0.576 0.451,-1.082 0.782,-1.513c0.336,-0.431 0.697,-0.791 1.095,-1.082c0.578,-0.414 1.157,-0.708 1.739,-0.884c0.583,-0.176 1.289,-0.264 2.115,-0.264c1.801,0 3.209,0.528 4.216,1.587Zm-7.072,4.457c0.075,1.068 0.132,1.68 0.167,1.843c0.111,0.576 0.287,1.069 0.53,1.482c0.163,0.268 0.433,0.501 0.812,0.708c0.38,0.207 0.835,0.312 1.36,0.312c0.632,0 1.161,-0.202 1.589,-0.602c0.433,-0.396 0.742,-1.021 0.932,-1.874c0.123,-0.558 0.181,-1.474 0.181,-2.745c0,-1.562 -0.256,-2.67 -0.777,-3.316c-0.516,-0.651 -1.196,-0.972 -2.039,-0.972c-0.667,0 -1.214,0.184 -1.652,0.554c-0.437,0.369 -0.737,0.915 -0.909,1.636c-0.115,0.462 -0.181,1.456 -0.194,2.974Zm9.632,11.485l0,-0.582c0.155,-0.096 0.27,-0.157 0.336,-0.193l0.997,-0.36c0.415,-0.163 0.645,-0.295 0.698,-0.388c0.137,-0.259 0.198,-0.712 0.181,-1.368l-0.088,-5.128l-0.133,-6.379c-0.022,-0.461 -0.124,-0.791 -0.295,-0.989c-0.173,-0.198 -0.632,-0.404 -1.373,-0.62l-0.009,-0.669c0.843,-0.163 1.553,-0.365 2.132,-0.607c0.424,-0.172 0.998,-0.497 1.721,-0.98l0.658,-0.014l0.013,0.361l-0.013,1.394c0,0.053 0.005,0.18 0.013,0.387c0.751,-0.458 1.365,-0.757 1.85,-0.901c0.707,-0.207 1.488,-0.313 2.34,-0.313c0.879,0 1.66,0.224 2.34,0.673c0.053,0.031 0.128,0.079 0.22,0.141c0.433,0.308 0.746,0.607 0.945,0.888c0.433,0.612 0.741,1.21 0.932,1.804c0.145,0.448 0.22,1.007 0.22,1.676c0,0.892 -0.119,1.649 -0.348,2.27c-0.234,0.615 -0.637,1.24 -1.205,1.869c-0.57,0.625 -1.179,1.073 -1.828,1.337c-0.654,0.268 -1.338,0.4 -2.053,0.4c-0.706,0 -1.209,-0.044 -1.51,-0.127c-0.578,-0.163 -1.152,-0.405 -1.721,-0.722c-0.027,0.137 -0.04,0.229 -0.04,0.282l0.04,0.347c0.008,0.097 0.013,0.212 0.013,0.348c0,0.062 -0.009,0.4 -0.027,1.02l0.04,2.345c0,0.053 -0.004,0.224 -0.013,0.515l0,0.14c0,0.322 0.022,0.55 0.066,0.699c0.031,0.084 0.106,0.181 0.216,0.282c0.089,0.036 0.168,0.075 0.247,0.114c0.27,0.053 0.503,0.106 0.707,0.159c0.203,0.048 0.415,0.092 0.64,0.128c0.075,0.092 0.115,0.219 0.115,0.373c0,0.093 -0.005,0.234 -0.014,0.414l-0.233,0c-0.5,0 -0.848,-0.009 -1.047,-0.026l-1.951,-0.168l-0.481,0l-0.45,-0.013l-0.455,0.036l-0.697,0.039c-0.261,0.009 -0.544,0.031 -0.853,0.066c-0.313,0.035 -0.534,0.053 -0.675,0.053l-0.168,-0.013Zm4.905,-9.216c0.031,0.102 0.053,0.181 0.062,0.234c0.097,0.395 0.216,0.672 0.361,0.835c0.27,0.308 0.574,0.515 0.919,0.62c0.516,0.146 0.971,0.22 1.36,0.22c0.446,0 0.887,-0.096 1.311,-0.286c0.428,-0.189 0.772,-0.439 1.028,-0.761c0.036,-0.043 0.089,-0.101 0.155,-0.18c0.062,-0.137 0.11,-0.238 0.146,-0.308c0.344,-0.668 0.516,-1.385 0.516,-2.138c0,-1.394 -0.415,-2.564 -1.245,-3.519c-0.574,-0.677 -1.395,-1.02 -2.454,-1.02c-0.632,0 -1.347,0.163 -2.146,0.493c-0.026,0.334 -0.04,1.275 -0.04,2.819l0.04,2.49c0,0.057 -0.005,0.224 -0.013,0.501Zm10.25,1.856c0.141,-0.035 0.522,-0.088 1.153,-0.153c0.278,-0.035 0.45,-0.097 0.516,-0.181c0.089,-0.132 0.133,-0.435 0.133,-0.915l0,-0.914l0.035,-0.968l0,-1.056l0.013,-0.259l-0.013,-0.643l0.026,-0.219l0.053,-4.681l0,-0.361c0,-1.596 -0.044,-2.586 -0.128,-2.964c-0.053,-0.22 -0.176,-0.396 -0.37,-0.528c-0.195,-0.128 -0.649,-0.246 -1.364,-0.361l0,-0.268c0,-0.128 0.008,-0.29 0.026,-0.48l1.086,-0.228c0.216,-0.062 0.424,-0.114 0.622,-0.154c0.482,-0.106 1.091,-0.321 1.824,-0.647c0.127,-0.079 0.247,-0.14 0.362,-0.193l0.697,0.053l-0.026,7.706c0.786,-0.621 1.501,-1.056 2.145,-1.315c0.649,-0.26 1.32,-0.387 2.017,-0.387c0.667,0 1.241,0.118 1.731,0.356c0.485,0.233 0.861,0.528 1.13,0.875c0.265,0.347 0.455,0.77 0.57,1.267c0.074,0.339 0.114,0.981 0.114,1.935l0,0.823l0.014,1.817l-0.067,2.63c0.036,0.079 0.075,0.127 0.119,0.154c0.102,0.044 0.358,0.106 0.764,0.18c0.229,0.044 0.411,0.084 0.543,0.119c0.067,0.127 0.102,0.229 0.102,0.308l-0.013,0.101c-0.018,0.097 -0.027,0.238 -0.027,0.427l-0.296,0.013c-0.128,0 -0.384,-0.017 -0.764,-0.052c-0.723,-0.067 -1.333,-0.102 -1.822,-0.102c-0.319,0 -0.747,0.018 -1.281,0.053c-0.379,0.013 -0.861,0.022 -1.448,0.022c-0.097,0 -0.181,-0.013 -0.26,-0.035l0,-0.312l-0.027,-0.168c0,-0.066 0.023,-0.162 0.066,-0.281c0.199,-0.097 0.428,-0.158 0.694,-0.189c0.26,-0.031 0.511,-0.062 0.741,-0.097c0.035,-0.163 0.058,-0.264 0.066,-0.308l0.067,-1.883l0,-3.158c0,-0.932 -0.053,-1.566 -0.16,-1.9c-0.101,-0.33 -0.317,-0.598 -0.643,-0.81c-0.327,-0.211 -0.725,-0.316 -1.193,-0.316c-0.543,0 -1.068,0.127 -1.58,0.378c-0.516,0.255 -0.954,0.554 -1.316,0.898l0,2.256c0,1.236 -0.013,2.164 -0.039,2.785c-0.018,0.369 -0.022,0.597 -0.022,0.694c0,0.594 0.035,0.999 0.114,1.223c0.036,0.106 0.129,0.198 0.283,0.286c0.322,0.022 0.587,0.039 0.799,0.044c0.208,0.004 0.38,0.022 0.507,0.057c0.018,0.216 0.027,0.366 0.027,0.453c0,0.119 -0.018,0.264 -0.053,0.435l-1.434,-0.065c-0.543,-0.04 -1.029,-0.062 -1.462,-0.062l-1.81,0.088l-1.267,-0.013c-0.088,-0.119 -0.177,-0.334 -0.274,-0.643l0,-0.167Zm25.336,-8.582c0.551,0.533 0.962,1.145 1.236,1.835c0.269,0.691 0.406,1.342 0.406,1.953c0,1.153 -0.177,2.081 -0.53,2.784c-0.534,1.065 -1.254,1.852 -2.159,2.358c-0.904,0.506 -1.96,0.761 -3.156,0.761c-1.347,0 -2.485,-0.303 -3.421,-0.902c-0.936,-0.602 -1.603,-1.284 -2.005,-2.05c-0.401,-0.765 -0.6,-1.715 -0.6,-2.85c0,-0.572 0.093,-1.152 0.282,-1.733c0.19,-0.576 0.451,-1.082 0.782,-1.513c0.336,-0.431 0.697,-0.791 1.095,-1.082c0.578,-0.414 1.156,-0.708 1.739,-0.884c0.583,-0.176 1.289,-0.264 2.115,-0.264c1.801,0 3.209,0.528 4.216,1.587Zm-7.072,4.457c0.074,1.068 0.132,1.68 0.167,1.843c0.111,0.576 0.287,1.069 0.53,1.482c0.163,0.268 0.432,0.501 0.812,0.708c0.38,0.207 0.835,0.313 1.36,0.313c0.631,0 1.161,-0.202 1.589,-0.603c0.433,-0.396 0.741,-1.021 0.931,-1.874c0.124,-0.558 0.181,-1.474 0.181,-2.745c0,-1.562 -0.256,-2.67 -0.776,-3.316c-0.517,-0.651 -1.196,-0.972 -2.04,-0.972c-0.667,0 -1.214,0.184 -1.651,0.554c-0.437,0.369 -0.737,0.915 -0.909,1.636c-0.115,0.462 -0.181,1.456 -0.194,2.974Zm10.202,4.28c0.224,-0.101 0.432,-0.172 0.622,-0.207c0.472,-0.075 0.75,-0.141 0.825,-0.194c0.133,-0.074 0.216,-0.171 0.261,-0.281c0.053,-0.172 0.075,-0.55 0.075,-1.135l0,-1.121l0.013,-0.916l-0.035,-1.355l0,-0.809c0,-0.541 -0.044,-0.985 -0.133,-1.328c-0.035,-0.128 -0.141,-0.26 -0.322,-0.387c-0.243,-0.172 -0.649,-0.34 -1.227,-0.502l-0.014,-0.62c0.111,-0.035 0.212,-0.057 0.305,-0.07c0.088,-0.014 0.437,-0.097 1.037,-0.251c0.477,-0.172 0.782,-0.29 0.919,-0.361c0.044,-0.026 0.114,-0.066 0.207,-0.114c0.106,-0.088 0.221,-0.172 0.349,-0.259c0.26,-0.181 0.57,-0.493 0.931,-0.942l0.689,-0.053l-0.026,1.461c-0.009,0.145 -0.013,0.259 -0.013,0.347c0,0.066 0.004,0.264 0.013,0.589c0.715,-0.615 1.364,-1.047 1.951,-1.288c0.768,-0.317 1.496,-0.475 2.185,-0.475c0.813,0 1.523,0.198 2.137,0.598c0.609,0.4 1.011,0.862 1.201,1.386c0.19,0.523 0.286,1.583 0.286,3.171l-0.052,4.201c0,0.198 0.035,0.36 0.101,0.488c0.088,0.07 0.326,0.136 0.71,0.193l0.636,0.119c0.08,0.11 0.115,0.247 0.115,0.409c0,0.106 -0.005,0.246 -0.013,0.427l-2.534,-0.181l-0.75,0.027l-0.592,0l-1.709,0.128l-0.441,0c-0.009,-0.111 -0.013,-0.198 -0.013,-0.256c0,-0.158 0.009,-0.325 0.026,-0.505c0.12,-0.027 0.424,-0.066 0.905,-0.128c0.133,-0.018 0.274,-0.049 0.429,-0.088c0.172,-0.07 0.269,-0.141 0.295,-0.207c0.071,-0.149 0.106,-0.426 0.106,-0.84c0,-0.721 -0.009,-1.275 -0.026,-1.662l0.013,-1.496c0.009,-1.812 -0.106,-2.938 -0.336,-3.387c-0.33,-0.646 -0.821,-0.968 -1.474,-0.968c-0.486,0 -0.984,0.124 -1.501,0.37c-0.516,0.242 -1.051,0.616 -1.602,1.112l-0.027,0.221l0.027,0.813l-0.014,0.863l0.049,2.062l-0.027,0.321c0,1.399 0.058,2.191 0.173,2.371c0.11,0.181 0.538,0.379 1.28,0.594c0.022,0.146 0.035,0.251 0.035,0.321c0,0.102 -0.026,0.26 -0.088,0.476c-0.27,0.008 -0.49,0.013 -0.671,0.013c-0.186,0 -0.468,-0.027 -0.857,-0.075l-1.381,-0.027c-0.693,0 -1.687,0.031 -2.989,0.089c-0.035,-0.084 -0.053,-0.177 -0.053,-0.269c0,-0.071 0.005,-0.207 0.014,-0.413Zm15.207,-6.172c0.225,-0.73 0.424,-1.218 0.596,-1.456c0.481,-0.708 0.998,-1.257 1.545,-1.649c0.548,-0.396 1.042,-0.66 1.479,-0.787c0.57,-0.163 1.033,-0.247 1.387,-0.247c0.807,0 1.465,0.062 1.964,0.189c0.499,0.124 0.918,0.304 1.254,0.532c0.485,0.335 0.874,0.678 1.165,1.021c0.291,0.343 0.534,0.748 0.719,1.21c0.186,0.466 0.283,1.029 0.301,1.689l-1.435,-0.027c-0.397,0 -1.267,-0.04 -2.614,-0.114c-0.498,-0.035 -0.842,-0.053 -1.032,-0.053c-0.062,0 -0.525,0.004 -1.395,0.013l-1.113,0c-0.017,0.119 -0.026,0.225 -0.026,0.308c0,0.458 0.052,0.937 0.168,1.439c0.11,0.501 0.278,0.945 0.503,1.328c0.225,0.383 0.503,0.708 0.834,0.985c0.331,0.273 0.676,0.471 1.029,0.594l0.75,0.242c0.663,0 1.108,-0.022 1.333,-0.061c0.411,-0.089 0.777,-0.198 1.09,-0.33c0.319,-0.132 0.698,-0.361 1.148,-0.678c0.309,0.225 0.566,0.427 0.773,0.607c-0.759,0.832 -1.545,1.435 -2.357,1.808c-0.817,0.374 -1.726,0.563 -2.737,0.563c-0.68,0 -1.236,-0.061 -1.669,-0.18c-0.579,-0.154 -1.099,-0.392 -1.563,-0.708c-0.467,-0.322 -0.869,-0.713 -1.205,-1.188c-0.335,-0.471 -0.587,-0.959 -0.751,-1.456c-0.216,-0.651 -0.322,-1.178 -0.322,-1.57c0,-0.748 0.062,-1.426 0.181,-2.024Zm7.514,-0.554c-0.009,-0.484 -0.102,-0.941 -0.283,-1.381c-0.181,-0.436 -0.463,-0.779 -0.843,-1.025c-0.38,-0.242 -0.763,-0.365 -1.152,-0.365c-0.574,0 -1.099,0.251 -1.563,0.76c-0.463,0.507 -0.728,1.192 -0.79,2.059l2.949,0.013c0.19,0 0.459,-0.013 0.803,-0.035c0.252,-0.026 0.429,-0.039 0.53,-0.039c0.08,0 0.195,0.004 0.349,0.013Z" style="fill:#052c9e;"/><path d="M55.573,36.361l0.424,0.009l0.117,-0.018l0.253,0l0.244,0.018l0.017,0l0.109,-0.018l0.298,0.027l0.234,0l0.199,0.054l0.09,0.099l0.081,0.072l-0.036,0.287l-0.027,0.082l-0.135,0.107l-0.271,0.027l-0.253,0l-0.018,0.009l-0.153,0.036l-0.135,0l-0.307,0.018c-0.009,0 -0.027,0 -0.036,0.009l-0.046,0.018c-0.026,0.009 -0.045,0.027 -0.054,0.063l-0.036,0.081c0,0.009 -0.009,0.009 -0.009,0.027l-0.027,0.261l-0.018,0.323l0,0.018l0.018,0.126l-0.018,0.081l0,0.036l0.018,0.144l-0.018,0.108l0,0.027l0.009,0.144l0.018,0.134l0,0.135l-0.027,0.108l0,0.036l0.018,0.144l0.009,0.125l-0.009,0.154l0.009,0.125l0,0.117l-0.009,0.162l-0.018,0.225l0.009,0.135l-0.036,0.225l-0.117,0.233l-0.117,0.117l-0.262,-0.027l-0.136,-0.117l-0.062,-0.206l-0.019,-0.207c0,-0.009 -0.009,-0.018 -0.009,-0.027l-0.027,-0.099l0.019,-0.252l0.008,-0.135l0,-0.036l-0.018,-0.116l0.01,-0.135l0,-0.036l-0.019,-0.108l0.009,-0.144l0.01,-0.117l0,-0.117l0,-0.018l-0.028,-0.152l0.018,-0.288l0,-0.099l0.018,-0.126l0,-0.036l-0.008,-0.135l0.008,-0.287l-0.027,-0.27l0.009,-0.09c0,-0.009 0,-0.036 -0.009,-0.045l-0.036,-0.09c0,-0.009 -0.018,-0.018 -0.018,-0.018l-0.027,-0.045c-0.009,-0.018 -0.036,-0.027 -0.054,-0.036l-0.118,-0.045l-0.089,-0.027c-0.01,-0.009 -0.037,-0.009 -0.046,-0.009l-0.207,0.018l-0.153,-0.009l-0.019,0l-0.207,0l-0.181,-0.027l-0.225,-0.054l-0.072,-0.063l-0.081,-0.098l0,-0.288l0.063,-0.072l0.144,-0.099l0.208,-0.063l0.216,0.009l0.018,0l0.226,-0.027l0.135,0.009l0.117,0.027l0.018,0.009l0.127,0c0.008,0 0.018,-0.009 0.027,-0.009l0.117,-0.036l0.108,0.027l0.018,0.009l0.154,0l0.108,-0.018Zm4.403,2.382l0.018,-0.269l-0.009,-0.108l0.018,-0.153l0,-0.036l-0.027,-0.099l0.009,-0.144l0.027,-0.126l0,-0.279l-0.009,-0.017l-0.027,-0.153l0.027,-0.099l0.009,-0.018l0,-0.315l0.027,-0.314l0.063,-0.108l0.135,-0.081l0.226,-0.045l0.307,-0.018l0.09,0.027c0.018,0.009 0.027,0.009 0.036,0.009l0.144,-0.009l0.109,-0.009l0.162,-0.018l0.117,0.018l0.027,0l0.136,-0.018l0.099,0.009l0.126,0.027l0.018,0l0.154,-0.009l0.126,0l0.289,-0.018l0.126,0.045l0.252,0.054l0.28,0.063l0.118,0.081l0.108,0.054l0.117,0.081l0.09,0.081l0.091,0.089l0.081,0.126l0.072,0.108l0.072,0.126l0.045,0.09l0.127,0.261l0.008,0.134l0,0.126c0,0.009 0.01,0.018 0.01,0.027l0.036,0.153l-0.018,0.135l0,0.126l-0.036,0.144l-0.036,0.134l-0.073,0.09c-0.009,0.018 -0.018,0.018 -0.018,0.036l-0.036,0.117l-0.063,0.108l-0.09,0.126l-0.172,0.153l-0.036,0.036l-0.027,0.072l-0.126,0.152c-0.018,0.027 -0.036,0.063 -0.027,0.099l0.045,0.189c0,0.009 0.009,0.018 0.018,0.036l0.054,0.063l0.153,0.261l0.046,0.126l0.081,0.215l-0.063,0.108l-0.181,0.207l-0.099,0.036l-0.153,-0.009l-0.226,-0.162l-0.054,-0.09l-0.172,-0.243l-0.054,-0.116l-0.153,-0.252l-0.117,-0.153c-0.009,-0.018 -0.027,-0.018 -0.036,-0.027l-0.055,-0.036c-0.008,-0.009 -0.036,-0.018 -0.045,-0.018l-0.126,-0.009l-0.217,0l-0.144,-0.018l-0.171,-0.009l-0.136,0l-0.135,-0.009l-0.189,0.018l-0.199,0.036c-0.009,0 -0.018,0.009 -0.027,0.009l-0.063,0.036c-0.018,0.009 -0.027,0.018 -0.036,0.036l-0.036,0.063c-0.009,0.009 -0.009,0.036 -0.009,0.045l-0.018,0.252l-0.01,0.135l-0.009,0.233l-0.162,0.225l-0.117,0.054l-0.28,-0.054l-0.09,-0.135l-0.073,-0.27l-0.035,-0.251l0.027,-0.108l0,-0.045l-0.036,-0.144l0.036,-0.099l0,-0.045l0,-0.126l-0.018,-0.134l-0.018,-0.306l0.027,-0.099l0,-0.045l-0.018,-0.072l-0.009,-0.153Zm1.876,-1.573l-0.243,0.009l-0.144,-0.018l-0.154,-0.009l-0.018,0l-0.235,0.036l-0.135,0.036c-0.036,0.009 -0.072,0.027 -0.081,0.063l-0.063,0.153c0,0.009 -0.009,0.018 -0.009,0.036l-0.009,0.161l0,0.279l0.009,0.018l0.027,0.126l-0.018,0.126l-0.009,0.126l0.009,0.171l0.018,0.153l0.036,0.126c0,0.017 0.018,0.017 0.027,0.035l0.045,0.054c0.009,0.018 0.027,0.018 0.045,0.027l0.135,0.054c0.018,0.009 0.028,0 0.036,0l0.154,0l0.144,-0.009l0.118,0.018l0.144,0l0.099,-0.018l0.154,0.009l0.108,0l0.108,-0.009l0.271,-0.009l0.027,0l0.261,-0.09l0.118,-0.027c0.018,-0.009 0.027,-0.009 0.036,-0.018l0.081,-0.072c0.009,-0.009 0.018,-0.009 0.027,-0.027l0.045,-0.09l0.154,-0.197c0.009,-0.018 0.017,-0.027 0.017,-0.054l0.01,-0.081l0.018,-0.117l0,-0.018l-0.009,-0.234l-0.009,-0.027l-0.054,-0.233c0,-0.018 -0.018,-0.046 -0.028,-0.054l-0.072,-0.063l-0.063,-0.09l-0.027,-0.027l-0.09,-0.063l-0.09,-0.045c-0.01,-0.009 -0.018,-0.009 -0.018,-0.009l-0.127,-0.054l-0.216,-0.045l-0.018,0l-0.28,-0.009l-0.099,-0.018l-0.027,0l-0.136,0.018Zm8.066,3.191l-0.018,0.216l-0.063,0.126l-0.271,0.126l-0.126,0l-0.19,-0.162l-0.135,-0.206l-0.108,-0.198c-0.009,-0.027 -0.045,-0.045 -0.072,-0.054l-0.19,-0.054c-0.018,-0.009 -0.036,0 -0.045,0l-0.253,0.027l-0.09,-0.018l-0.027,0l-0.153,0.009l-0.117,-0.018l-0.046,0l-0.126,0.027l-0.09,-0.009c-0.009,0 -0.018,-0.009 -0.027,-0.009l-0.135,0.018l-0.145,-0.009l-0.189,-0.009l-0.036,0l-0.145,0.036l-0.018,0l-0.081,0.036l-0.027,0.018l-0.09,0.081c-0.009,0.008 -0.018,0.008 -0.028,0.026l-0.108,0.234l-0.234,0.18l-0.118,0.072l-0.108,-0.027l-0.126,-0.045l-0.099,-0.099l-0.072,-0.197l0.063,-0.172c0,-0.008 0.009,-0.017 0.009,-0.035l0,-0.117l0.108,-0.243l0.063,-0.081c0.009,-0.018 0.027,-0.027 0.027,-0.054l0.018,-0.09l0.063,-0.134l0.054,-0.117l0.136,-0.27l0.108,-0.225l0.054,-0.108c0,-0.009 0.009,-0.027 0.009,-0.027l0.037,-0.126l0.036,-0.09l0.072,-0.143l0.072,-0.126l0.045,-0.099l0.036,-0.117l0.081,-0.153l0.045,-0.072c0.009,-0.018 0.019,-0.027 0.019,-0.036l0.017,-0.107l0.082,-0.144l0.044,-0.09c0,-0.009 0.01,-0.009 0.01,-0.027l0.027,-0.126l0.054,-0.09l0.072,-0.117l0.018,-0.018l0.109,-0.296l0.144,-0.216l0.189,-0.153l0.127,-0.027l0.144,0l0.162,0.162l0.153,0.206l0.1,0.27l0.036,0.135l0.054,0.126l0.045,0.099l0.018,0.117c0,0.009 0.009,0.018 0.019,0.036l0.063,0.107l0.045,0.117l0.036,0.135l0.054,0.126l0.045,0.108l0.054,0.099l0.045,0.144c0,0 0.009,0.018 0.009,0.027l0.054,0.09l0.036,0.107l0.054,0.144c0,0 0.01,0.018 0.01,0.028l0.063,0.089l0.045,0.117l0.054,0.126l0.018,0.126l0.009,0.018l0.091,0.233c0,0 0.008,0 0.008,0.01l0.064,0.107l0.045,0.135l0.009,0.018l0.063,0.108l0.063,0.261l0.009,0.009l0.081,0.189Zm-2.048,-0.953l0.109,0.009c0.018,0 0.036,0 0.054,-0.009l0.045,-0.018l0.189,0.018c0.018,0 0.036,0 0.054,-0.009l0.172,-0.081c0.054,-0.027 0.072,-0.072 0.072,-0.117l-0.009,-0.171c0,-0.018 -0.009,-0.018 -0.009,-0.027l-0.081,-0.188l-0.063,-0.144l-0.036,-0.144c0,-0.009 -0.01,-0.018 -0.01,-0.027l-0.045,-0.09l-0.09,-0.135l-0.054,-0.144c-0.018,-0.054 -0.081,-0.08 -0.135,-0.072l-0.046,0c-0.035,0 -0.072,0.028 -0.089,0.063l-0.019,0.027c0,0.009 -0.009,0.009 -0.009,0.009l-0.072,0.189l-0.081,0.099c0,0 -0.009,0.009 -0.009,0.018l-0.054,0.117l0,0.008l-0.036,0.145l-0.154,0.305c-0.008,0.019 -0.008,0.027 -0.008,0.036l-0.01,0.108c0,0.054 0.036,0.108 0.09,0.126l0.19,0.063l0.144,0.036Zm8.301,-1.205l-0.009,0.692l0.018,0.117l-0.009,0.126l-0.027,0.108l0,0.539l0.018,0.144l0.018,0.135l-0.036,0.207l0,0.035l0.018,0.118l-0.081,0.233l-0.082,0.081l-0.108,0.081l-0.288,-0.018l-0.154,-0.144l-0.126,-0.108l-0.189,-0.216l-0.046,-0.071c0,-0.009 -0.018,-0.019 -0.018,-0.019l-0.108,-0.107l-0.054,-0.072l-0.108,-0.108l-0.073,-0.09l-0.117,-0.135l-0.064,-0.072l-0.072,-0.099l-0.09,-0.107l-0.072,-0.108c-0.009,-0.018 -0.018,-0.018 -0.027,-0.028l-0.09,-0.062l-0.099,-0.135l-0.055,-0.063c0,-0.009 0,-0.009 -0.008,-0.018l-0.109,-0.09l-0.081,-0.117l-0.081,-0.081l-0.099,-0.117l-0.082,-0.09l-0.054,-0.107c0,-0.009 -0.009,-0.019 -0.018,-0.027l-0.198,-0.18c0,0 -0.018,0 -0.027,-0.009l-0.063,-0.036c-0.063,-0.036 -0.145,-0.009 -0.181,0.054l-0.027,0.045c-0.009,0.009 -0.018,0.027 -0.018,0.045l-0.009,0.198l0.009,0.116l0.009,0.126l-0.018,0.099l0,0.036l0.009,0.108l-0.009,0.261l0.018,0.17l-0.027,0.135l0,0.027l0.009,0.09l0,0.144l0.009,0.171l-0.027,0.279l0,0.269l-0.1,0.099l-0.189,0.144l-0.162,0.018l-0.235,-0.162l-0.063,-0.341l0,-0.243l-0.009,-0.153l0,-0.117l-0.018,-0.135l0,-0.269l0.018,-0.135l0,-0.135l0,-0.027l-0.027,-0.126l0.027,-0.108l0,-0.053l-0.036,-0.109l0.027,-0.107l0.009,-0.019l0,-0.125l-0.036,-0.288l0.009,-0.135l0.009,-0.126l0.018,-0.144l0,-0.018l0,-0.368l-0.027,-0.144l0.018,-0.27l0.045,-0.207l0.073,-0.206l0.108,-0.09l0.108,-0.036l0.135,0.018l0.235,0.108l0.072,0.09l0.145,0.189c0,0.008 0.008,0 0.017,0.008l0.1,0.09l0.081,0.09l0.099,0.108l0.054,0.072l0.1,0.099l0.072,0.126c0,0.009 0.008,0.009 0.018,0.018l0.261,0.261l0.063,0.125c0,0.009 0.018,0.018 0.028,0.027l0.081,0.081l0.108,0.081l0.081,0.117l0.018,0.018l0.081,0.09l0.064,0.09l0.081,0.117l0.081,0.09l0.117,0.107l0.091,0.09l0.135,0.207c0.009,0.018 0.018,0.027 0.027,0.036l0.09,0.054c0.009,0.009 0.018,0.009 0.018,0.009l0.072,0.036c0.072,0.036 0.163,0 0.19,-0.072l0.036,-0.09c0,-0.009 0.009,-0.018 0.009,-0.036l0,-0.305l0,-0.019l-0.009,-0.107l-0.018,-0.136l0.027,-0.143l0.009,-0.153l0,-0.018l0,-0.135l-0.018,-0.143l0.009,-0.126l0.009,-0.117l-0.018,-0.153l0.018,-0.306l0,-0.261l0.126,-0.233l0.109,-0.09l0.27,0.009l0.145,0.072l0.099,0.252l0.009,0.269l0,0.333l-0.009,0.108l0,0.027l0.018,0.143l-0.009,0.135l0,0.126l-0.009,0.162l0.018,0.135Zm4.177,2.796l-0.208,0l-0.144,-0.036l-0.036,-0.009l-0.09,0.009l-0.135,-0.018l-0.136,-0.054l-0.126,-0.054l-0.145,-0.045l-0.117,-0.063l-0.09,-0.108l-0.199,-0.189l-0.108,-0.08l-0.081,-0.108l-0.036,-0.099c0,0 -0.009,-0.018 -0.009,-0.027l-0.072,-0.108l-0.036,-0.108l-0.01,-0.099l-0.008,-0.036l-0.046,-0.108l-0.018,-0.288l0.027,-0.107l0.018,-0.135l0.055,-0.135l0.09,-0.234l0.234,-0.161l0.127,-0.01l0.234,0.072l0.1,0.126l0,0.234l-0.028,0.162l-0.036,0.224l-0.018,0.117l0,0.045l0.027,0.09c0,0 0.009,0.009 0.009,0.018l0.054,0.108c0,0.009 0.018,0.018 0.018,0.018l0.064,0.072l0.072,0.09l0.018,0.018l0.18,0.135l0.028,0.018l0.117,0.045l0.135,0.026l0.027,0l0.117,-0.008l0.109,0.008l0.027,0l0.126,-0.035l0.099,0c0.018,0 0.046,0 0.054,-0.009l0.109,-0.063l0.099,-0.063l0.099,-0.072c0.009,-0.009 0.027,-0.009 0.036,-0.027l0.118,-0.18l0.117,-0.198c0.009,-0.009 0.009,-0.036 0.009,-0.045l0.009,-0.08l0,-0.036l-0.027,-0.135l0,-0.018l-0.045,-0.108l-0.055,-0.126l-0.026,-0.036l-0.19,-0.161l-0.081,-0.055l-0.226,-0.135c-0.009,0 -0.018,-0.018 -0.027,-0.018l-0.162,-0.044l-0.099,-0.054l-0.009,-0.009l-0.289,-0.108l-0.153,-0.054l-0.208,-0.144l-0.009,-0.009l-0.135,-0.072l-0.1,-0.108l-0.135,-0.261l-0.036,-0.08l-0.009,-0.153l-0.009,-0.126l0.009,-0.126l0,-0.135l0.063,-0.108c0,-0.009 0.009,-0.018 0.009,-0.018l0.036,-0.108l0.154,-0.233l0.108,-0.081c0.009,-0.009 0.018,-0.009 0.018,-0.009l0.09,-0.099l0.118,-0.072l0.108,-0.027l0.009,0l0.135,-0.063l0.108,-0.036l0.172,-0.009l0.261,0l0.109,0.045l0.117,0.054c0.009,0 0.018,0.009 0.027,0.009l0.144,0.018l0.199,0.189l0.09,0.099l0.108,0.108l0.037,0.125l0.098,0.27l-0.054,0.234l-0.072,0.099l-0.27,0.089l-0.117,-0.026l-0.217,-0.234l-0.145,-0.171c-0.008,-0.018 -0.018,-0.018 -0.026,-0.027l-0.1,-0.054l-0.09,-0.036c-0.018,-0.009 -0.036,-0.018 -0.063,-0.009l-0.099,0.027l-0.091,0.027c-0.018,0.009 -0.045,0.018 -0.054,0.036l-0.108,0.126c-0.018,0.018 -0.027,0.045 -0.027,0.081l0.009,0.063c0,0.027 0.018,0.036 0.027,0.054l0.09,0.117c0.009,0.018 0.027,0.018 0.036,0.026l0.226,0.118c0.009,0 0.018,0.008 0.027,0.008l0.108,0.018l0.226,0.108l0.09,0.063c0.009,0 0.018,0.018 0.027,0.018l0.135,0.036l0.208,0.126l0.126,0.054l0.19,0.189l0.117,0.08l0.063,0.082l0.108,0.107l0.027,0.144c0,0.009 0.009,0.018 0.009,0.027l0.064,0.108l0.063,0.117l0.027,0.135l0.018,0.099l-0.018,0.17l-0.009,0.1l0.009,0.161l-0.036,0.108l-0.063,0.117l0,0.018l-0.027,0.117l-0.145,0.252l-0.18,0.198l-0.109,0.062l-0.027,0.018l-0.09,0.09l-0.108,0.072l-0.109,0.063l-0.135,0.054l-0.099,0.027l-0.135,0.063l-0.118,0.018l-0.216,0.054Zm3.943,-2.23l0.009,-0.278l0,-0.153l0.027,-0.09l0,-0.036l-0.018,-0.126l0.018,-0.144l-0.018,-0.152l-0.018,-0.136l0.036,-0.116l0,-0.045l-0.018,-0.072l-0.018,-0.144l0.036,-0.324l0.054,-0.314l0.045,-0.126l0.126,-0.09l0.28,-0.045l0.28,0l0.271,0.018l0.117,-0.009l0.135,0l0.135,0.009l0.036,0l0.091,-0.018l0.126,0.009l0.117,0.018l0.018,0.009l0.145,0c0.009,0 0.018,-0.009 0.018,-0.009l0.108,-0.027l0.144,0.018l0.127,0.009c0.009,0 0.027,0.009 0.036,0l0.09,-0.036l0.163,0l0.117,0.036l0.027,0l0.234,-0.018l0.117,0.009l0.28,0l0.181,0.009l0.162,0.108l0.082,0.099l0.017,0.314l-0.054,0.1l-0.207,0.107l-0.28,0.027l-0.271,0.018l-0.135,-0.018l-0.135,-0.009l-0.018,0l-0.135,0.018l-0.109,-0.009l-0.126,0.009l-0.135,-0.027c-0.018,-0.009 -0.037,-0.009 -0.054,0l-0.091,0.027l-0.09,-0.018l-0.036,0l-0.154,0.027l-0.099,-0.018l-0.018,-0.009l-0.108,0l-0.135,0.018l-0.361,0l-0.018,0l-0.172,0.027c-0.018,0 -0.045,0.018 -0.054,0.027l-0.045,0.045c-0.009,0.009 -0.027,0.036 -0.027,0.054l-0.054,0.225c0,0.017 -0.009,0.027 0,0.053l0.027,0.082l-0.009,0.143l0,0.018l0.027,0.216c0,0.009 0.009,0.036 0.018,0.045l0.036,0.054c0.018,0.027 0.054,0.045 0.081,0.045l0.244,0.018l0.307,0.036l0.026,0l0.127,-0.018l0.126,0l0.163,-0.009l0.108,-0.009l0.144,0.018l0.316,0.009l0.289,0.063l0.099,0.081l0.054,0.126l0.027,0.251l-0.099,0.081l-0.117,0.099l-0.253,0.072l-0.289,0l-0.135,-0.009l-0.117,0.018l-0.262,-0.009l-0.153,-0.009l-0.126,0.018l-0.262,0.009l-0.244,0.045c-0.054,0.009 -0.09,0.054 -0.099,0.108l-0.027,0.207l-0.018,0.287l-0.018,0.135l-0.009,0.144l0,0.036l0.036,0.135l-0.036,0.26l-0.018,0.189l-0.163,0.207l-0.216,0.063l-0.126,-0.045l-0.172,-0.207l-0.054,-0.287l0.009,-0.315l0,-0.099l0,-0.018l-0.018,-0.162l-0.009,-0.108l0.027,-0.143l0,-0.036l-0.027,-0.135l0,-0.108l0.009,-0.171l0,-0.135l-0.018,-0.117Zm10.086,-0.314l0,0.251l-0.036,0.109c0,0.008 -0.008,0.017 -0.008,0.035l0,0.144l-0.028,0.117l-0.036,0.135l-0.063,0.143l-0.027,0.126l-0.063,0.099l-0.081,0.126l-0.073,0.108l-0.072,0.117l-0.063,0.09l-0.09,0.117l-0.09,0.081l-0.117,0.099l-0.109,0.09l-0.253,0.134l-0.099,0.036c-0.009,0 -0.018,0.009 -0.027,0.009l-0.081,0.054l-0.135,0.054l-0.163,0.054l-0.099,-0.009l-0.027,0l-0.108,0.018l-0.009,0.009l-0.136,0.045l-0.424,-0.036l-0.018,0l-0.099,0.009l-0.145,-0.045l-0.144,-0.054l-0.126,-0.027l-0.136,-0.054l-0.108,-0.045l-0.117,-0.08l-0.108,-0.055l-0.1,-0.081l-0.135,-0.116l-0.099,-0.081l-0.09,-0.081l-0.064,-0.117l-0.081,-0.126l-0.081,-0.108l-0.063,-0.09l-0.081,-0.116l-0.027,-0.126c0,-0.01 -0.009,-0.018 -0.009,-0.028l-0.063,-0.108l-0.046,-0.152l-0.018,-0.126l-0.036,-0.135l0,-0.108l-0.009,-0.296l0.018,-0.117l0.045,-0.153l0,-0.036l0,-0.072l0.036,-0.135l0.073,-0.161l0.027,-0.118l0.054,-0.134l0.09,-0.081c0.018,-0.018 0.018,-0.027 0.018,-0.036l0.045,-0.108l0.09,-0.081c0.01,-0.009 0.028,-0.018 0.028,-0.027l0.036,-0.072l0.099,-0.126l0.099,-0.081l0.118,-0.098l0.108,-0.09l0.09,-0.036c0.009,-0.009 0.018,-0.009 0.027,-0.009l0.108,-0.081l0.154,-0.072l0.09,-0.018c0.009,0 0.018,0 0.027,-0.009l0.108,-0.054l0.127,-0.036l0.126,-0.027l0.144,-0.018l0.018,0l0.117,-0.027l0.271,0.027l0.027,0l0.126,-0.027l0.109,0.054c0.009,0.009 0.027,0.009 0.036,0.009l0.117,0.009l0.136,0.018l0.126,0.063l0.09,0.053c0.009,0.01 0.018,0.01 0.018,0.01l0.135,0.045l0.118,0.071l0.09,0.064c0,0 0.009,0 0.018,0.008l0.126,0.064l0.1,0.089l0.072,0.118l0.081,0.089l0.018,0.018l0.108,0.09l0.046,0.09c0,0.009 0.008,0.018 0.017,0.027l0.081,0.072l0.036,0.126c0,0.018 0.01,0.018 0.019,0.036l0.081,0.098l0.018,0.09c0,0.018 0.009,0.018 0.009,0.028l0.072,0.152l0.018,0.09l0.018,0.153l0.037,0.144l0.026,0.126Zm-2.128,-1.331l-0.254,0.027l-0.162,0.009l-0.081,0.009c-0.009,0 -0.018,0 -0.027,0.009l-0.144,0.063l-0.072,0.027c-0.019,0.009 -0.027,0.009 -0.037,0.018l-0.099,0.09l-0.117,0.027l-0.054,0.036l-0.072,0.081l-0.1,0.081c-0.009,0.009 -0.018,0 -0.018,0.009l-0.072,0.09c0,0.008 -0.009,0.008 -0.009,0.018l-0.054,0.116l-0.072,0.108c0,0.009 -0.018,0.009 -0.018,0.027l-0.036,0.099l-0.027,0.144l-0.055,0.09c-0.008,0.009 -0.008,0.036 -0.008,0.045l0,0.099l-0.01,0.287c0,0.018 0.01,0.028 0.01,0.036l0.026,0.099l0.046,0.108l0.027,0.162l0.027,0.081c0,0.009 0.009,0.009 0.009,0.018l0.063,0.108c0,0.008 0.009,0.018 0.009,0.018l0.09,0.09l0.045,0.107l0.027,0.036l0.09,0.072l0.082,0.09l0.027,0.018l0.117,0.063l0.09,0.063l0.127,0.063c0.009,0.009 0.027,0.009 0.036,0.009l0.099,0l0.09,0.054c0.009,0.009 0.027,0.009 0.045,0.009l0.406,0.009l0.262,-0.018c0.009,0 0.018,-0.009 0.027,-0.009l0.109,-0.036l0.117,-0.054l0.026,-0.018l0.1,-0.081l0.081,-0.063l0.109,-0.09l0.098,-0.063l0.037,-0.036l0.054,-0.071l0.072,-0.136l0.081,-0.08c0.01,-0.01 0.018,-0.01 0.018,-0.018l0.054,-0.117l0.046,-0.099c0.009,-0.009 0.009,-0.036 0.009,-0.045l0,-0.117l0.017,-0.153l0,-0.251l-0.008,-0.144l-0.018,-0.117l0,-0.018l-0.054,-0.144l-0.046,-0.099l-0.045,-0.126c-0.009,-0.009 -0.009,-0.018 -0.027,-0.036l-0.063,-0.063l-0.072,-0.108l-0.081,-0.116c0,-0.009 -0.018,-0.018 -0.028,-0.018l-0.09,-0.072c0,0 -0.009,0 -0.018,-0.009l-0.099,-0.045l-0.09,-0.081c-0.009,-0.009 -0.018,-0.009 -0.037,-0.018l-0.108,-0.027l-0.135,-0.063c-0.009,-0.009 -0.027,-0.009 -0.036,-0.009l-0.108,-0.009l-0.1,-0.036c-0.008,-0.009 -0.036,-0.009 -0.044,-0.009Zm4.357,1.618l0.018,-0.269l-0.009,-0.108l0.018,-0.153l0,-0.036l-0.027,-0.099l0.009,-0.144l0.027,-0.126l0,-0.279l-0.009,-0.017l-0.027,-0.153l0.027,-0.099l0.009,-0.018l0,-0.315l0.028,-0.314l0.062,-0.108l0.136,-0.081l0.225,-0.045l0.307,-0.018l0.091,0.027c0.018,0.009 0.026,0.009 0.036,0.009l0.144,-0.009l0.108,-0.009l0.163,-0.018l0.117,0.018l0.027,0l0.135,-0.018l0.099,0.009l0.127,0.027l0.018,0l0.153,-0.009l0.127,0l0.288,-0.018l0.126,0.045l0.253,0.054l0.28,0.063l0.117,0.081l0.108,0.054l0.118,0.081l0.09,0.081l0.09,0.089l0.081,0.126l0.072,0.108l0.073,0.126l0.045,0.09l0.126,0.261l0.009,0.134l0,0.126c0,0.009 0.009,0.018 0.009,0.027l0.036,0.153l-0.018,0.135l0,0.126l-0.036,0.144l-0.036,0.134l-0.072,0.09c-0.009,0.018 -0.018,0.018 -0.018,0.036l-0.036,0.117l-0.064,0.108l-0.09,0.126l-0.171,0.153l-0.036,0.036l-0.027,0.072l-0.127,0.152c-0.018,0.027 -0.036,0.063 -0.027,0.099l0.046,0.189c0,0.009 0.008,0.018 0.018,0.036l0.054,0.063l0.153,0.261l0.045,0.126l0.082,0.215l-0.064,0.108l-0.18,0.207l-0.1,0.036l-0.153,-0.009l-0.225,-0.162l-0.055,-0.09l-0.171,-0.243l-0.054,-0.116l-0.153,-0.252l-0.118,-0.153c-0.009,-0.018 -0.027,-0.018 -0.036,-0.027l-0.054,-0.036c-0.009,-0.009 -0.036,-0.018 -0.045,-0.018l-0.126,-0.009l-0.217,0l-0.145,-0.018l-0.171,-0.009l-0.135,0l-0.135,-0.009l-0.19,0.018l-0.198,0.036c-0.01,0 -0.018,0.009 -0.027,0.009l-0.063,0.036c-0.018,0.009 -0.028,0.018 -0.037,0.036l-0.036,0.063c-0.009,0.009 -0.009,0.036 -0.009,0.045l-0.018,0.252l-0.009,0.135l-0.009,0.233l-0.162,0.225l-0.118,0.054l-0.279,-0.054l-0.09,-0.135l-0.073,-0.27l-0.036,-0.251l0.027,-0.108l0,-0.045l-0.036,-0.144l0.036,-0.099l0,-0.045l0,-0.126l-0.018,-0.134l-0.018,-0.306l0.027,-0.099l0,-0.045l-0.018,-0.072l-0.009,-0.153Zm1.876,-1.573l-0.243,0.009l-0.144,-0.018l-0.154,-0.009l-0.018,0l-0.234,0.036l-0.136,0.036c-0.036,0.009 -0.072,0.027 -0.081,0.063l-0.063,0.153c0,0.009 -0.009,0.018 -0.009,0.036l-0.009,0.161l0,0.279l0.009,0.018l0.027,0.126l-0.018,0.126l-0.009,0.126l0.009,0.171l0.018,0.153l0.036,0.126c0,0.017 0.018,0.017 0.027,0.035l0.045,0.054c0.01,0.018 0.027,0.018 0.046,0.027l0.135,0.054c0.018,0.009 0.027,0 0.036,0l0.153,0l0.145,-0.009l0.117,0.018l0.144,0l0.099,-0.018l0.154,0.009l0.108,0l0.108,-0.009l0.271,-0.009l0.027,0l0.262,-0.09l0.117,-0.027c0.018,-0.009 0.027,-0.009 0.036,-0.018l0.082,-0.072c0.008,-0.009 0.018,-0.009 0.026,-0.027l0.046,-0.09l0.153,-0.197c0.009,-0.018 0.018,-0.027 0.018,-0.054l0.009,-0.081l0.018,-0.117l0,-0.018l-0.009,-0.234l-0.009,-0.027l-0.054,-0.233c0,-0.018 -0.018,-0.046 -0.027,-0.054l-0.072,-0.063l-0.063,-0.09l-0.028,-0.027l-0.09,-0.063l-0.09,-0.045c-0.009,-0.009 -0.018,-0.009 -0.018,-0.009l-0.126,-0.054l-0.217,-0.045l-0.018,0l-0.28,-0.009l-0.099,-0.018l-0.027,0l-0.136,0.018Zm4.52,1.609l-0.018,-0.288l0.036,-0.108l0,-0.036l0,-0.242l0.01,-0.144l0,-0.099l-0.01,-0.153l-0.018,-0.144l-0.018,-0.116l0,-0.252l0.018,-0.09l0,-0.018l0,-0.216l0.073,-0.197l0.018,-0.099l0.09,-0.081l0.262,-0.099l0.153,0.072l0.217,0.189l0.207,0.26l0.072,0.072l0.072,0.126c0.009,0.018 0.018,0.027 0.028,0.036l0.108,0.081l0.045,0.081l0.216,0.251l0.063,0.09c0,0.01 0.01,0.018 0.01,0.018l0.09,0.082l0.081,0.116c0,0.009 0.009,0.018 0.009,0.018l0.09,0.081l0.064,0.108l0.089,0.117l0.199,0.242c0,0.01 0.009,0.019 0.018,0.019l0.189,0.125c0.046,0.036 0.1,0.036 0.145,0l0.171,-0.116c0.009,0 0.018,-0.018 0.018,-0.018l0.172,-0.189l0.09,-0.126l0.072,-0.072c0.009,-0.009 0.018,-0.009 0.027,-0.027l0.045,-0.108l0.091,-0.09l0.216,-0.252l0.045,-0.071l0.081,-0.108l0.091,-0.126l0.081,-0.063l0.09,-0.099c0,0 0.009,0 0.009,-0.009l0.09,-0.135l0.082,-0.072c0,0 0.018,-0.009 0.018,-0.018l0.153,-0.224l0.199,-0.162l0.198,-0.09l0.135,0.018l0.154,0.108l0.117,0.188l0.018,0.504l-0.018,0.153l0,0.135l0.009,0.117l0,0.17l0.027,0.117l-0.009,0.108l-0.009,0.153l0.009,0.117l-0.018,0.135l0,0.027l0.018,0.134l-0.009,0.09l0,0.018l0.009,0.144l-0.018,0.144l0,0.243l-0.009,0.117l0,0.018l0.018,0.161l0.009,0.099l-0.018,0.126l0,0.036l0.027,0.117l-0.036,0.117l0,0.296l-0.027,0.261l-0.145,0.189l-0.108,0.054l-0.28,-0.072l-0.117,-0.099l-0.072,-0.297l0,-0.288l0,-0.035l-0.036,-0.108l0.018,-0.117l0.018,-0.162l0,-0.018l-0.009,-0.116l0.009,-0.154l0,-0.521l-0.009,-0.332l-0.018,-0.198c0,-0.036 -0.027,-0.054 -0.045,-0.072l-0.036,-0.036c-0.027,-0.027 -0.073,-0.027 -0.109,-0.018l-0.062,0.018c-0.019,0.009 -0.037,0.018 -0.046,0.036l-0.126,0.144l-0.072,0.116l-0.28,0.324l-0.081,0.099l-0.081,0.108l-0.073,0.09l-0.09,0.108l-0.09,0.089l-0.19,0.235l-0.225,0.188l-0.162,0l-0.109,-0.045l-0.198,-0.126l-0.081,-0.099l-0.172,-0.197l-0.072,-0.108c-0.009,-0.018 -0.018,-0.018 -0.027,-0.027l-0.108,-0.072l-0.09,-0.117l-0.064,-0.108l-0.072,-0.117c0,-0.009 -0.018,-0.018 -0.018,-0.018l-0.099,-0.099l-0.063,-0.098c0,-0.01 -0.018,-0.01 -0.018,-0.01l-0.181,-0.197l-0.036,-0.027l-0.081,-0.036c-0.072,-0.036 -0.162,0.009 -0.189,0.08l-0.036,0.1c0,0.008 -0.01,0.018 -0.01,0.036l-0.008,0.269l0,0.153l0.008,0.126l0,0.126l0.01,0.117l0.008,0.162l0.01,0.108l0,0.134l-0.028,0.126l0,0.036l0.028,0.126l0,0.27l-0.01,0.126l-0.054,0.206l-0.144,0.225l-0.136,0.081l-0.279,-0.081l-0.09,-0.081l-0.064,-0.216l-0.036,-0.188l0.01,-0.153l0,-0.019l-0.018,-0.233l0.008,-0.144l0.018,-0.252l0,-0.017l-0.018,-0.145l0.028,-0.26l-0.01,-0.171l-0.018,-0.099Zm8.914,-2.463l0.253,0.018l0.153,0.009l0.118,-0.018l0.171,0l0.136,0.018l0.162,0l0.279,-0.018l0.307,0.099l0.055,0.117l0.054,0.09l-0.036,0.26l-0.082,0.09l-0.198,0.117l-0.226,0l-0.153,-0.009l-0.244,0.018c-0.018,0 -0.036,0 -0.054,0.018l-0.081,0.054c-0.009,0.009 -0.027,0.027 -0.036,0.045l-0.036,0.072c0,0.009 -0.009,0.018 -0.009,0.027l-0.036,0.216l0,0.018l0.018,0.215l-0.028,0.126l0,0.036l0.018,0.099l0.01,0.162l-0.018,0.126l0.008,0.117l-0.008,0.126l0,0.17l0.027,0.099l-0.037,0.117l0,0.045l0.028,0.126l-0.01,0.135l0,0.144l0.019,0.278l0.036,0.225c0.009,0.045 0.054,0.099 0.099,0.108l0.172,0.036l0.018,0l0.288,0.009l0.325,0.045l0.208,0.216l0.026,0.09l0.018,0.126l-0.062,0.152l-0.226,0.126l-0.171,0l-0.262,0.009l-0.126,-0.009l-0.127,0l-0.018,0.009l-0.126,0.027l-0.253,0l-0.297,-0.027l-0.118,0l-0.018,0.009l-0.135,0.027l-0.109,-0.036l-0.054,0l-0.108,0.036l-0.117,-0.009l-0.136,-0.018l-0.018,0l-0.279,0.018l-0.28,-0.081l-0.09,-0.099l-0.036,-0.09l-0.036,-0.251l0.126,-0.135l0.099,-0.081l0.28,-0.036l0.307,0c0.009,0 0.018,0.009 0.036,0l0.189,-0.063c0.009,0 0.027,-0.009 0.036,-0.018l0.073,-0.063c0.018,-0.009 0.026,-0.027 0.036,-0.054l0.045,-0.171l0,-0.027l0,-0.17l0,-0.018l-0.018,-0.153l0.009,-0.126l0,-0.027l-0.009,-0.117l0,-0.135l0.018,-0.153l0,-0.027l-0.009,-0.09l0.018,-0.143l0,-0.153l-0.009,-0.117l-0.027,-0.162l0.018,-0.126l0,-0.135l-0.018,-0.135l-0.01,-0.251l-0.018,-0.135c0,-0.018 -0.018,-0.045 -0.036,-0.063l-0.044,-0.045l-0.055,-0.036l-0.252,-0.054l-0.018,0l-0.262,-0.018l-0.216,-0.018l-0.163,-0.08l-0.099,-0.136l-0.018,-0.242l0.09,-0.099l0.216,-0.135l0.217,-0.027l0.289,0l0.153,-0.018l0.099,0.018l0.036,0l0.091,-0.018l0.126,0l0.162,-0.018Zm8.039,1.888l-0.008,0.692l0.018,0.117l-0.01,0.126l-0.026,0.108l0,0.539l0.018,0.144l0.018,0.134l-0.036,0.208l0,0.035l0.018,0.117l-0.082,0.234l-0.081,0.081l-0.108,0.081l-0.289,-0.018l-0.153,-0.144l-0.126,-0.108l-0.19,-0.216l-0.045,-0.072c0,-0.008 -0.018,-0.018 -0.018,-0.018l-0.109,-0.108l-0.054,-0.072l-0.108,-0.107l-0.072,-0.09l-0.117,-0.135l-0.064,-0.072l-0.072,-0.099l-0.09,-0.107l-0.072,-0.108c-0.009,-0.018 -0.018,-0.018 -0.027,-0.028l-0.091,-0.062l-0.098,-0.135l-0.055,-0.063c0,-0.009 0,-0.009 -0.009,-0.018l-0.108,-0.09l-0.082,-0.117l-0.08,-0.081l-0.1,-0.117l-0.081,-0.09l-0.054,-0.108c0,-0.008 -0.009,-0.018 -0.018,-0.026l-0.198,-0.18c0,0 -0.018,0 -0.028,-0.009l-0.063,-0.036c-0.063,-0.036 -0.144,-0.009 -0.18,0.054l-0.027,0.045c-0.01,0.009 -0.018,0.026 -0.018,0.045l-0.01,0.197l0.01,0.117l0.008,0.126l-0.018,0.099l0,0.036l0.01,0.108l-0.01,0.261l0.018,0.17l-0.026,0.135l0,0.027l0.008,0.09l0,0.144l0.01,0.171l-0.027,0.279l0,0.269l-0.1,0.099l-0.189,0.144l-0.163,0.018l-0.234,-0.162l-0.063,-0.342l0,-0.242l-0.009,-0.153l0,-0.117l-0.018,-0.135l0,-0.269l0.018,-0.135l0,-0.135l0,-0.027l-0.027,-0.126l0.027,-0.108l0,-0.054l-0.036,-0.108l0.026,-0.108l0.01,-0.018l0,-0.125l-0.036,-0.288l0.009,-0.135l0.009,-0.126l0.018,-0.144l0,-0.018l0,-0.368l-0.027,-0.144l0.017,-0.27l0.046,-0.207l0.072,-0.206l0.108,-0.09l0.108,-0.036l0.136,0.018l0.234,0.108l0.073,0.09l0.144,0.188c0,0.009 0.009,0 0.018,0.009l0.099,0.09l0.081,0.09l0.1,0.108l0.054,0.072l0.099,0.099l0.073,0.126c0,0.009 0.008,0.009 0.017,0.018l0.262,0.261l0.063,0.125c0,0.009 0.018,0.018 0.027,0.027l0.082,0.081l0.108,0.081l0.081,0.117l0.018,0.018l0.081,0.09l0.063,0.09l0.081,0.117l0.082,0.09l0.117,0.107l0.09,0.09l0.136,0.207c0.008,0.018 0.018,0.027 0.026,0.036l0.091,0.054c0.009,0.009 0.018,0.009 0.018,0.009l0.072,0.036c0.072,0.036 0.163,0 0.189,-0.072l0.036,-0.09c0,-0.009 0.01,-0.018 0.01,-0.036l0,-0.305l0,-0.019l-0.01,-0.107l-0.018,-0.136l0.028,-0.143l0.009,-0.153l0,-0.018l0,-0.135l-0.019,-0.143l0.01,-0.126l0.009,-0.117l-0.019,-0.153l0.019,-0.306l0,-0.261l0.126,-0.233l0.108,-0.09l0.271,0.009l0.144,0.072l0.099,0.252l0.01,0.269l0,0.333l-0.01,0.108l0,0.027l0.018,0.143l-0.008,0.135l0,0.126l-0.01,0.162l0.018,0.135Zm5.414,0.026l0.28,-0.018l0.171,0.035l0.018,0.009l0.226,0.01l0.252,0.072l0.099,0.116l0.073,0.162l0.008,0.153l0,0.287l0.01,0.126l-0.01,0.144l0,0.135l-0.018,0.243l-0.063,0.126l-0.153,0.207l-0.063,0.107l-0.091,0.09l-0.09,0.108l-0.099,0.081l-0.117,0.063l-0.117,0.072l-0.253,0.117l-0.108,0.054l-0.253,0.08l-0.126,0.036l-0.253,0c-0.009,0 -0.018,0.01 -0.027,0.01l-0.09,0.026l-0.153,-0.026l-0.1,-0.01c0,0 -0.018,-0.008 -0.027,-0.008l-0.144,0.008l-0.217,-0.053l-0.135,-0.073c-0.009,-0.008 -0.018,-0.008 -0.018,-0.008l-0.226,-0.072l-0.108,-0.072c-0.009,-0.009 -0.018,-0.009 -0.018,-0.009l-0.108,-0.045l-0.117,-0.081l-0.091,-0.099l-0.09,-0.072l-0.099,-0.108l-0.018,-0.018l-0.1,-0.072l-0.063,-0.098l-0.081,-0.108l-0.081,-0.117l-0.027,-0.09c0,0 -0.009,-0.009 -0.009,-0.018l-0.072,-0.144l-0.045,-0.135l-0.019,-0.081l-0.009,-0.009l-0.063,-0.161l-0.018,-0.09l0,-0.135l0,-0.018l-0.027,-0.135l0.009,-0.108l0,-0.027l-0.018,-0.126l0.045,-0.108c0,-0.009 0.009,-0.009 0.009,-0.017l0.018,-0.136l0.009,-0.152l0.045,-0.081c0.009,-0.009 0.019,-0.036 0.019,-0.047l0,-0.126l0.072,-0.081c0.009,-0.018 0.018,-0.018 0.018,-0.035l0.036,-0.117l0.054,-0.126l0.172,-0.198l0.18,-0.188l0.117,-0.108l0.099,-0.072l0.117,-0.108l0.118,-0.081l0.081,-0.054l0.117,-0.072l0.136,-0.027l0.126,-0.027l0.135,-0.036l0.163,-0.063l0.108,0.009c0.018,0 0.027,0 0.045,-0.009l0.1,-0.036l0.153,0.027l0.081,0.009l0.027,0l0.126,-0.018l0.154,0.018l0.117,0.063c0.009,0.009 0.018,0.009 0.027,0.009l0.118,0.018l0.135,0.045l0.099,0.054l0.018,0.009l0.136,0.036l0.225,0.162l0.126,0.08l0.154,0.18l0.063,0.216l-0.027,0.126l-0.199,0.198l-0.117,0.045l-0.244,-0.045l-0.18,-0.162c-0.009,-0.009 -0.018,0 -0.027,-0.009l-0.253,-0.117l-0.081,-0.054c-0.009,-0.009 -0.036,-0.018 -0.045,-0.018l-0.118,-0.018l-0.116,-0.036l-0.028,0l-0.244,-0.018l-0.017,0l-0.127,0.018l-0.126,0c-0.009,0 -0.009,-0.009 -0.027,0l-0.135,0.045l-0.019,0l-0.117,0.063l-0.117,0.036c-0.009,0 -0.018,0.018 -0.027,0.018l-0.09,0.063l-0.018,0.018l-0.073,0.09l-0.126,0.089l-0.027,0.018l-0.135,0.198l-0.082,0.09c-0.008,0.009 -0.018,0.029 -0.018,0.038l-0.054,0.144l-0.036,0.107l-0.045,0.126l-0.018,0.117l0,0.027l0.018,0.117l-0.009,0.153c0,0.009 0.009,0.027 0.009,0.027l0.018,0.117l0.036,0.098l0.018,0.126c0,0.018 0.009,0.027 0.009,0.036l0.045,0.099l0.081,0.144c0,0.009 0.01,0.009 0.01,0.018l0.072,0.09l0.162,0.207c0.009,0.018 0.028,0.018 0.036,0.027l0.073,0.036l0.099,0.099l0.027,0.018l0.144,0.062l0.108,0.045l0.109,0.018l0.135,0.046l0.027,0.008l0.145,0.018l0.126,0.018l0.036,0l0.108,-0.027l0.271,-0.053l0.018,-0.01l0.099,-0.044l0.127,-0.045c0.008,0 0.018,-0.009 0.018,-0.009l0.189,-0.135l0.027,-0.027l0.054,-0.072l0.136,-0.144c0.018,-0.018 0.036,-0.054 0.036,-0.072l0.008,-0.09l0,-0.036l-0.044,-0.162c-0.01,-0.036 -0.036,-0.071 -0.064,-0.081l-0.153,-0.062c-0.009,-0.01 -0.027,-0.01 -0.036,-0.01l-0.181,-0.008l-0.135,0l-0.28,-0.028l-0.18,-0.152l-0.054,-0.135l-0.009,-0.126l0.036,-0.162l0.243,-0.126l0.172,-0.045l0.199,-0.008l0.162,0Zm11.25,2.131l-0.018,0.216l-0.063,0.126l-0.271,0.126l-0.126,0l-0.189,-0.162l-0.136,-0.206l-0.108,-0.198c-0.009,-0.027 -0.045,-0.045 -0.072,-0.054l-0.19,-0.054c-0.018,-0.009 -0.036,0 -0.044,0l-0.253,0.027l-0.09,-0.018l-0.027,0l-0.154,0.009l-0.117,-0.018l-0.045,0l-0.127,0.027l-0.09,-0.009c-0.009,0 -0.018,-0.009 -0.027,-0.009l-0.135,0.018l-0.144,-0.009l-0.19,-0.009l-0.036,0l-0.145,0.036l-0.018,0l-0.08,0.036l-0.028,0.018l-0.09,0.081c-0.009,0.008 -0.018,0.008 -0.027,0.026l-0.109,0.234l-0.234,0.18l-0.117,0.072l-0.109,-0.027l-0.126,-0.045l-0.099,-0.099l-0.072,-0.197l0.063,-0.172c0,-0.008 0.009,-0.017 0.009,-0.035l0,-0.117l0.108,-0.243l0.063,-0.081c0.009,-0.018 0.027,-0.027 0.027,-0.054l0.019,-0.09l0.063,-0.134l0.054,-0.117l0.135,-0.27l0.108,-0.225l0.054,-0.108c0,-0.009 0.01,-0.027 0.01,-0.027l0.036,-0.126l0.036,-0.09l0.072,-0.143l0.072,-0.126l0.045,-0.099l0.037,-0.117l0.08,-0.153l0.046,-0.072c0.009,-0.018 0.018,-0.027 0.018,-0.036l0.018,-0.107l0.081,-0.144l0.045,-0.09c0,-0.009 0.009,-0.009 0.009,-0.027l0.027,-0.126l0.054,-0.09l0.072,-0.117l0.019,-0.018l0.108,-0.296l0.144,-0.216l0.19,-0.153l0.126,-0.027l0.144,0l0.163,0.162l0.153,0.206l0.099,0.27l0.036,0.135l0.054,0.126l0.046,0.099l0.018,0.117c0,0.009 0.009,0.018 0.018,0.035l0.063,0.108l0.045,0.117l0.036,0.135l0.054,0.126l0.045,0.108l0.055,0.099l0.045,0.144c0,0 0.009,0.018 0.009,0.027l0.054,0.09l0.036,0.107l0.054,0.144c0,0 0.009,0.018 0.009,0.028l0.063,0.089l0.045,0.117l0.054,0.126l0.018,0.126l0.009,0.018l0.091,0.233c0,0 0.009,0 0.009,0.009l0.063,0.108l0.045,0.135l0.009,0.018l0.063,0.108l0.063,0.261l0.009,0.009l0.081,0.188Zm-2.048,-0.952l0.108,0.009c0.018,0 0.036,0 0.054,-0.009l0.046,-0.018l0.189,0.018c0.018,0 0.036,0 0.054,-0.009l0.172,-0.081c0.054,-0.027 0.072,-0.072 0.072,-0.117l-0.009,-0.171c0,-0.018 -0.009,-0.018 -0.009,-0.027l-0.081,-0.188l-0.064,-0.144l-0.036,-0.144c0,-0.009 -0.008,-0.018 -0.008,-0.027l-0.046,-0.09l-0.09,-0.135l-0.054,-0.144c-0.018,-0.054 -0.081,-0.081 -0.136,-0.072l-0.044,0c-0.036,0 -0.073,0.028 -0.091,0.063l-0.018,0.027c0,0.009 -0.009,0.009 -0.009,0.009l-0.072,0.189l-0.081,0.099c0,0 -0.009,0.009 -0.009,0.018l-0.054,0.117l0,0.008l-0.036,0.144l-0.154,0.306c-0.009,0.018 -0.009,0.027 -0.009,0.036l-0.009,0.108c0,0.054 0.036,0.108 0.09,0.126l0.19,0.063l0.144,0.036Zm6.948,-1.179l0.279,-0.018l0.172,0.035l0.018,0.009l0.225,0.01l0.253,0.072l0.099,0.116l0.072,0.162l0.009,0.153l0,0.287l0.01,0.126l-0.01,0.144l0,0.135l-0.018,0.243l-0.063,0.126l-0.153,0.207l-0.064,0.107l-0.09,0.09l-0.09,0.108l-0.099,0.081l-0.118,0.063l-0.117,0.072l-0.252,0.117l-0.109,0.054l-0.252,0.08l-0.127,0.036l-0.252,0c-0.009,0 -0.018,0.01 -0.027,0.01l-0.091,0.026l-0.153,-0.026l-0.099,-0.01c0,0 -0.018,-0.008 -0.027,-0.008l-0.145,0.008l-0.216,-0.053l-0.135,-0.073c-0.009,-0.008 -0.018,-0.008 -0.018,-0.008l-0.226,-0.072l-0.108,-0.072c-0.01,-0.009 -0.018,-0.009 -0.018,-0.009l-0.109,-0.045l-0.117,-0.081l-0.09,-0.099l-0.09,-0.072l-0.099,-0.108l-0.018,-0.018l-0.1,-0.072l-0.063,-0.098l-0.081,-0.108l-0.082,-0.117l-0.026,-0.09c0,0 -0.01,-0.009 -0.01,-0.018l-0.072,-0.144l-0.045,-0.135l-0.018,-0.081l-0.009,-0.009l-0.063,-0.161l-0.018,-0.09l0,-0.135l0,-0.018l-0.027,-0.135l0.009,-0.108l0,-0.027l-0.018,-0.126l0.045,-0.108c0,-0.009 0.009,-0.009 0.009,-0.017l0.018,-0.136l0.009,-0.152l0.045,-0.081c0.009,-0.009 0.018,-0.036 0.018,-0.047l0,-0.126l0.073,-0.081c0.008,-0.018 0.017,-0.018 0.017,-0.035l0.037,-0.117l0.054,-0.126l0.171,-0.198l0.181,-0.188l0.117,-0.108l0.099,-0.072l0.117,-0.108l0.118,-0.081l0.081,-0.054l0.117,-0.072l0.136,-0.027l0.126,-0.027l0.135,-0.036l0.162,-0.063l0.109,0.009c0.018,0 0.027,0 0.045,-0.009l0.099,-0.036l0.153,0.027l0.082,0.009l0.027,0l0.126,-0.018l0.153,0.018l0.117,0.063c0.01,0.009 0.019,0.009 0.028,0.009l0.117,0.018l0.135,0.045l0.1,0.054l0.018,0.009l0.135,0.036l0.226,0.162l0.126,0.08l0.153,0.18l0.063,0.216l-0.027,0.126l-0.198,0.198l-0.117,0.045l-0.244,-0.045l-0.181,-0.162c-0.008,-0.009 -0.018,0 -0.026,-0.009l-0.253,-0.117l-0.081,-0.054c-0.009,-0.009 -0.036,-0.018 -0.045,-0.018l-0.118,-0.018l-0.117,-0.036l-0.027,0l-0.244,-0.018l-0.018,0l-0.126,0.018l-0.126,0c-0.01,0 -0.01,-0.009 -0.027,0l-0.136,0.045l-0.018,0l-0.117,0.063l-0.117,0.036c-0.009,0 -0.018,0.018 -0.027,0.018l-0.091,0.063l-0.018,0.018l-0.072,0.09l-0.126,0.089l-0.027,0.018l-0.136,0.198l-0.081,0.09c-0.009,0.009 -0.018,0.029 -0.018,0.038l-0.054,0.144l-0.036,0.107l-0.045,0.126l-0.018,0.117l0,0.027l0.018,0.117l-0.009,0.153c0,0.009 0.009,0.027 0.009,0.027l0.018,0.117l0.036,0.098l0.018,0.126c0,0.018 0.009,0.027 0.009,0.036l0.045,0.099l0.081,0.144c0,0.009 0.009,0.009 0.009,0.018l0.073,0.09l0.162,0.207c0.009,0.018 0.027,0.018 0.036,0.027l0.072,0.036l0.1,0.099l0.026,0.018l0.145,0.062l0.108,0.045l0.108,0.018l0.136,0.046l0.027,0.008l0.144,0.018l0.127,0.018l0.036,0l0.108,-0.027l0.271,-0.053l0.017,-0.01l0.1,-0.044l0.126,-0.045c0.009,0 0.018,-0.009 0.018,-0.009l0.19,-0.135l0.027,-0.027l0.054,-0.072l0.135,-0.144c0.019,-0.018 0.036,-0.054 0.036,-0.072l0.009,-0.09l0,-0.036l-0.045,-0.162c-0.009,-0.036 -0.036,-0.071 -0.063,-0.081l-0.153,-0.062c-0.009,-0.01 -0.027,-0.01 -0.037,-0.01l-0.18,-0.008l-0.136,0l-0.279,-0.028l-0.18,-0.152l-0.054,-0.135l-0.01,-0.126l0.036,-0.162l0.244,-0.126l0.172,-0.045l0.198,-0.008l0.163,0Zm3.455,0.513l0.018,-0.269l-0.009,-0.108l0.018,-0.153l0,-0.036l-0.027,-0.099l0.009,-0.144l0.027,-0.126l0,-0.279l-0.009,-0.017l-0.027,-0.153l0.027,-0.099l0.009,-0.018l0,-0.315l0.027,-0.314l0.063,-0.108l0.135,-0.081l0.226,-0.045l0.307,-0.018l0.09,0.027c0.018,0.009 0.027,0.009 0.036,0.009l0.144,-0.009l0.109,-0.009l0.162,-0.018l0.117,0.018l0.028,0l0.135,-0.018l0.099,0.009l0.127,0.027l0.018,0l0.153,-0.009l0.126,0l0.289,-0.018l0.126,0.045l0.253,0.054l0.28,0.063l0.117,0.081l0.108,0.054l0.117,0.081l0.091,0.081l0.09,0.089l0.081,0.126l0.072,0.108l0.073,0.126l0.044,0.09l0.127,0.261l0.009,0.134l0,0.126c0,0.009 0.009,0.018 0.009,0.027l0.036,0.153l-0.018,0.135l0,0.126l-0.036,0.144l-0.036,0.134l-0.073,0.09c-0.008,0.018 -0.018,0.018 -0.018,0.036l-0.036,0.117l-0.063,0.108l-0.09,0.126l-0.171,0.153l-0.036,0.036l-0.028,0.072l-0.126,0.152c-0.018,0.027 -0.036,0.063 -0.027,0.099l0.045,0.189c0,0.009 0.009,0.018 0.018,0.036l0.054,0.063l0.154,0.261l0.045,0.126l0.081,0.215l-0.063,0.108l-0.181,0.207l-0.099,0.036l-0.153,-0.009l-0.226,-0.162l-0.054,-0.09l-0.171,-0.243l-0.054,-0.116l-0.154,-0.252l-0.117,-0.153c-0.009,-0.018 -0.027,-0.018 -0.036,-0.027l-0.054,-0.036c-0.009,-0.009 -0.036,-0.018 -0.046,-0.018l-0.126,-0.009l-0.216,0l-0.144,-0.018l-0.172,-0.009l-0.135,0l-0.136,-0.009l-0.189,0.018l-0.199,0.036c-0.008,0 -0.018,0.009 -0.027,0.009l-0.063,0.036c-0.018,0.009 -0.027,0.018 -0.036,0.036l-0.036,0.063c-0.009,0.009 -0.009,0.036 -0.009,0.045l-0.018,0.252l-0.009,0.135l-0.009,0.233l-0.162,0.225l-0.118,0.054l-0.28,-0.054l-0.09,-0.135l-0.072,-0.27l-0.036,-0.251l0.027,-0.108l0,-0.045l-0.036,-0.144l0.036,-0.099l0,-0.045l0,-0.126l-0.018,-0.134l-0.018,-0.306l0.027,-0.099l0,-0.045l-0.018,-0.072l-0.009,-0.153Zm1.877,-1.573l-0.244,0.009l-0.144,-0.018l-0.154,-0.009l-0.018,0l-0.234,0.036l-0.136,0.036c-0.036,0.009 -0.072,0.027 -0.081,0.063l-0.063,0.153c0,0.009 -0.009,0.018 -0.009,0.036l-0.009,0.161l0,0.279l0.009,0.018l0.027,0.126l-0.018,0.126l-0.009,0.126l0.009,0.171l0.018,0.153l0.036,0.126c0,0.017 0.018,0.017 0.027,0.035l0.045,0.054c0.009,0.018 0.027,0.018 0.045,0.027l0.136,0.054c0.018,0.009 0.027,0 0.036,0l0.153,0l0.145,-0.009l0.117,0.018l0.144,0l0.1,-0.018l0.153,0.009l0.108,0l0.108,-0.009l0.271,-0.009l0.027,0l0.262,-0.09l0.117,-0.027c0.018,-0.009 0.027,-0.009 0.036,-0.018l0.081,-0.072c0.009,-0.009 0.018,-0.009 0.028,-0.027l0.044,-0.09l0.154,-0.197c0.009,-0.018 0.018,-0.027 0.018,-0.054l0.009,-0.081l0.018,-0.117l0,-0.018l-0.009,-0.234l-0.009,-0.027l-0.054,-0.233c0,-0.018 -0.018,-0.046 -0.027,-0.054l-0.072,-0.063l-0.064,-0.09l-0.027,-0.027l-0.09,-0.063l-0.09,-0.045c-0.009,-0.009 -0.018,-0.009 -0.018,-0.009l-0.127,-0.054l-0.216,-0.045l-0.018,0l-0.28,-0.009l-0.099,-0.018l-0.027,0l-0.135,0.018Zm5.747,-0.854l0.253,0.018l0.153,0.009l0.117,-0.018l0.171,0l0.136,0.018l0.162,0l0.28,-0.018l0.307,0.099l0.054,0.117l0.054,0.09l-0.036,0.26l-0.082,0.09l-0.198,0.117l-0.225,0l-0.154,-0.009l-0.244,0.018c-0.018,0 -0.036,0 -0.054,0.018l-0.081,0.054c-0.009,0.009 -0.027,0.027 -0.036,0.045l-0.036,0.072c0,0.009 -0.009,0.018 -0.009,0.027l-0.036,0.216l0,0.018l0.018,0.215l-0.027,0.126l0,0.036l0.018,0.099l0.009,0.162l-0.018,0.126l0.009,0.117l-0.009,0.126l0,0.17l0.027,0.099l-0.036,0.117l0,0.045l0.027,0.126l-0.009,0.135l0,0.144l0.018,0.278l0.036,0.225c0.009,0.045 0.054,0.099 0.099,0.108l0.172,0.036l0.018,0l0.288,0.009l0.325,0.045l0.208,0.216l0.027,0.09l0.018,0.126l-0.063,0.152l-0.226,0.126l-0.171,0l-0.262,0.009l-0.126,-0.009l-0.126,0l-0.018,0.009l-0.127,0.027l-0.252,0l-0.298,-0.027l-0.118,0l-0.018,0.009l-0.135,0.027l-0.108,-0.036l-0.054,0l-0.109,0.036l-0.117,-0.009l-0.135,-0.018l-0.018,0l-0.28,0.018l-0.28,-0.081l-0.09,-0.099l-0.036,-0.09l-0.036,-0.251l0.126,-0.135l0.1,-0.081l0.279,-0.036l0.307,0c0.009,0 0.018,0.009 0.036,0l0.19,-0.063c0.009,0 0.027,-0.009 0.036,-0.018l0.072,-0.063c0.018,-0.009 0.027,-0.027 0.036,-0.054l0.045,-0.171l0,-0.027l0,-0.17l0,-0.018l-0.018,-0.153l0.009,-0.126l0,-0.027l-0.009,-0.117l0,-0.135l0.018,-0.152l0,-0.028l-0.009,-0.09l0.018,-0.143l0,-0.153l-0.009,-0.117l-0.027,-0.161l0.018,-0.126l0,-0.136l-0.018,-0.134l-0.009,-0.252l-0.018,-0.135c0,-0.018 -0.018,-0.045 -0.036,-0.063l-0.045,-0.045l-0.054,-0.036l-0.253,-0.054l-0.018,0l-0.262,-0.018l-0.216,-0.018l-0.163,-0.08l-0.099,-0.136l-0.018,-0.242l0.09,-0.099l0.217,-0.135l0.216,-0.027l0.289,0l0.154,-0.018l0.099,0.018l0.036,0l0.09,-0.018l0.126,0l0.163,-0.018Zm5.729,0.063l0.279,0.018l0.019,0l0.099,-0.018l0.153,0.027l0.117,0.018l0.1,0.036c0.009,0.009 0.027,0.009 0.036,0.009l0.099,0l0.135,0.072c0.01,0 0.019,0.009 0.027,0.009l0.109,0.018l0.099,0.09l0.099,0.063l0.217,0.144l0.09,0.053l0.189,0.207l0.046,0.162l-0.018,0.108l-0.208,0.216l-0.108,0.036l-0.163,-0.009l-0.198,-0.109l-0.198,-0.134l-0.262,-0.144l-0.099,-0.045l-0.118,-0.036c-0.009,0 -0.018,-0.009 -0.027,-0.009l-0.144,0l-0.127,-0.027l-0.026,0l-0.091,0l-0.135,0.018c-0.009,0 -0.027,0 -0.036,0.009l-0.127,0.054l-0.062,0.009c-0.019,0 -0.046,0 -0.055,0.009l-0.117,0.081l-0.099,0.063l-0.1,0.036c-0.009,0 -0.036,0.018 -0.045,0.027l-0.18,0.189l-0.081,0.054c-0.009,0.008 -0.027,0.026 -0.036,0.044l-0.054,0.117l-0.064,0.117l-0.054,0.081c0,0.009 -0.018,0.018 -0.018,0.027l-0.036,0.108l0,0.018l-0.027,0.135l-0.036,0.126l-0.009,0.045l0.009,0.089l-0.018,0.118l0,0.036l0.027,0.152l0.036,0.117l0.108,0.261l0.036,0.099c0,0.009 0.01,0.027 0.018,0.035l0.073,0.082l0.117,0.089l0.045,0.081c0.009,0.018 0.018,0.027 0.036,0.036l0.117,0.063l0.055,0.072c0.018,0.018 0.036,0.036 0.062,0.045l0.082,0.027l0.153,0.072l0.109,0.054c0.008,0 0.018,0.009 0.026,0.009l0.109,0.018l0.027,0l0.099,-0.009l0.289,0.018l0.126,-0.009c0.009,0 0.027,0 0.036,-0.009l0.117,-0.054l0.145,-0.054l0.081,-0.018c0.009,0 0.027,0 0.036,-0.009l0.235,-0.162l0.243,-0.144l0.244,-0.036l0.126,0.063l0.073,0.108l0.081,0.153l-0.073,0.252l-0.045,0.081l-0.198,0.126c-0.009,0 -0.018,0.017 -0.018,0.026l-0.073,0.081l-0.117,0.072l-0.234,0.108l-0.135,0.045l-0.145,0.045c0,0 -0.018,0 -0.027,0.009l-0.09,0.063l-0.127,0.018l-0.117,0l-0.027,0l-0.126,0.027l-0.163,-0.009l-0.017,0l-0.118,0.009l-0.126,-0.009l-0.145,-0.018l-0.126,-0.027l-0.135,-0.027l-0.109,-0.054l-0.126,-0.081l-0.117,-0.072l-0.135,-0.063l-0.208,-0.135l-0.135,-0.08l-0.045,-0.073l-0.027,-0.017l-0.109,-0.081l-0.072,-0.108l-0.054,-0.099l-0.108,-0.135l-0.045,-0.126l-0.045,-0.09l-0.091,-0.152l-0.018,-0.118l-0.018,-0.125l-0.027,-0.108c0,-0.009 -0.009,-0.018 -0.009,-0.027l-0.054,-0.099l0.018,-0.135l0,-0.036l-0.018,-0.117l-0.009,-0.134l0.009,-0.118l0.009,-0.143l0.063,-0.261l0.063,-0.117l0,-0.018l0.045,-0.143l0.063,-0.108l0.073,-0.09c0,0 0.009,-0.009 0.009,-0.018l0.054,-0.117l0.099,-0.108l0.082,-0.099l0.09,-0.099l0.072,-0.108l0.108,-0.108l0.108,-0.045c0.01,0 0.027,-0.009 0.036,-0.017l0.082,-0.081l0.135,-0.072l0.126,-0.073l0.244,-0.062l0.144,-0.045l0.316,-0.072Zm4.277,1.555l-0.018,-0.215l-0.01,-0.162l-0.008,-0.108l0.036,-0.108l0,-0.045l-0.028,-0.126l0,-0.279l0.055,-0.287l0.117,-0.09l0.108,-0.072l0.253,0l0.108,0.054l0.099,0.116l0.055,0.234l0,0.252l-0.019,0.279l0,0.242l0.009,0.136l-0.009,0.134l0,0.126l0.027,0.144l-0.018,0.099l-0.009,0.323l0.037,0.288l0.008,0.018l0.037,0.108l0.017,0.117c0,0.009 0.019,0.027 0.028,0.045l0.054,0.063l0.036,0.098c0,0.01 0.009,0.028 0.018,0.036l0.09,0.1l0.045,0.098l0.027,0.036l0.199,0.153l0.081,0.081l0.027,0.018l0.09,0.045l0.1,0.072c0,0 0.008,0 0.018,0.009l0.126,0.054l0.018,0l0.126,0.027l0.018,0l0.09,-0.009l0.271,0.036c0.009,0 0.018,0.009 0.036,0l0.1,-0.027l0.117,-0.027l0.135,-0.018c0.009,0 0.027,0 0.036,-0.009l0.118,-0.063l0.072,-0.027c0.009,-0.009 0.009,-0.018 0.018,-0.018l0.108,-0.081l0.126,-0.081l0.009,-0.009l0.082,-0.081l0.09,-0.099l0.072,-0.044c0.018,-0.019 0.036,-0.046 0.045,-0.064l0.018,-0.08l0.072,-0.117c0,-0.009 0.009,-0.018 0.009,-0.018l0.036,-0.108l0.036,-0.126l0.055,-0.27l0.018,-0.153l0.009,-0.287l-0.009,-0.144l-0.009,-0.099l-0.018,-0.162l0.027,-0.117l0,-0.026l0,-0.136l0,-0.018l-0.027,-0.098l0.036,-0.144l0,-0.036l-0.018,-0.243l0.018,-0.099l0.027,-0.215l0.063,-0.189l0.117,-0.117l0.325,-0.009l0.127,0.108l0.098,0.233l0.019,0.225l0.009,0.261l-0.018,0.108l-0.01,0.171l0.01,0.108l-0.018,0.143l0,0.019l0.008,0.107l0.01,0.144l0.009,0.153l-0.009,0.135l-0.018,0.287l-0.018,0.162l0,0.126l-0.055,0.288l-0.027,0.125l-0.045,0.144l-0.054,0.108l-0.153,0.27l-0.064,0.09l-0.081,0.099c0,0 -0.018,0 -0.018,0.009l-0.072,0.135l-0.198,0.188l-0.1,0.036l-0.018,0.018l-0.126,0.099l-0.108,0.045l-0.145,0.072l-0.117,0.045c0,0 -0.009,0 -0.018,0.009l-0.09,0.072l-0.154,0.018l-0.126,0.036l-0.153,0.018l-0.126,0.027l-0.127,-0.018l-0.171,-0.009l-0.253,-0.009l-0.144,-0.018l-0.136,-0.045l-0.135,-0.063c-0.009,-0.009 -0.018,-0.009 -0.027,-0.009l-0.099,-0.009l-0.127,-0.081l-0.153,-0.09l-0.117,-0.054l-0.073,-0.081l-0.008,-0.009l-0.226,-0.179l-0.1,-0.108l-0.08,-0.09l-0.037,-0.108c0,-0.009 -0.018,-0.027 -0.027,-0.036l-0.063,-0.072l-0.063,-0.144l-0.054,-0.116l-0.063,-0.126l-0.063,-0.117l-0.009,-0.135l-0.027,-0.117l-0.009,-0.243l-0.018,-0.171l-0.028,-0.216l0.018,-0.125l0,-0.018l0,-0.135l0.01,-0.153l0,-0.018Zm6.811,0.809l0,-0.252l0.018,-0.107l0,-0.018l-0.009,-0.144l0.009,-0.126l-0.009,-0.126l0.027,-0.117c0,-0.018 0.009,-0.036 0,-0.054l-0.036,-0.08l0.027,-0.118l0.009,-0.018l0,-0.143l-0.009,-0.018l-0.018,-0.081l0.018,-0.297l0,-0.27l0.072,-0.188l0.09,-0.108l0.073,-0.081l0.243,0.009l0.118,0.045l0.108,0.09l0.036,0.305l0.036,0.279l-0.027,0.144l0,0.027l0.018,0.117l-0.009,0.116l0,0.037l0.018,0.135l-0.009,0.107l0,0.153l0.018,0.117l-0.009,0.126l0,0.018l0.009,0.252l-0.018,0.126l0,0.026l0.018,0.117l-0.027,0.09l0,0.036l0.009,0.108l-0.009,0.117l0,0.027l0.027,0.117l0,0.422l0.018,0.207c0,0.018 0.019,0.045 0.036,0.063l0.054,0.063c0.018,0.018 0.055,0.027 0.072,0.027l0.217,0.027l0.289,-0.009l0.153,0.027l0.027,0l0.118,-0.018l0.099,0l0.117,0.018l0.036,0l0.109,-0.018l0.144,0.027l0.036,0l0.072,-0.009l0.144,0l0.118,0.009l0.144,0l0.117,-0.027l0.452,0.009l0.243,0.018l0.208,0.126l0.099,0.126l0.009,0.233l-0.081,0.135l-0.235,0.108l-0.252,0.018l-0.397,0l-0.018,0l-0.127,0.018l-0.153,0.009l-0.099,-0.027l-0.045,0l-0.145,0.036l-0.108,0l-0.118,-0.036l-0.054,0l-0.099,0.036l-0.135,0l-0.163,-0.027l-0.026,0l-0.1,0.018l-0.153,-0.027l-0.127,0l-0.153,0.027l-0.108,-0.027l-0.036,0l-0.091,0.018l-0.306,0l-0.19,-0.036l-0.189,-0.045l-0.09,-0.108l-0.091,-0.09l-0.009,-0.296l-0.009,-0.306l0,-0.117l0,-0.027l-0.027,-0.144l-0.009,-0.135l0.018,-0.116l0.018,-0.108l0,-0.028l-0.018,-0.125l0,-0.126l0.009,-0.153l0,-0.027l-0.027,-0.108Zm7.038,-2.382l0.424,0.009l0.117,-0.018l0.253,0l0.243,0.018l0.019,0l0.108,-0.018l0.298,0.027l0.234,0l0.199,0.054l0.09,0.099l0.081,0.072l-0.036,0.287l-0.027,0.082l-0.136,0.107l-0.27,0.027l-0.253,0l-0.018,0.009l-0.153,0.036l-0.136,0l-0.306,0.018c-0.009,0 -0.027,0 -0.036,0.009l-0.046,0.018c-0.026,0.009 -0.044,0.027 -0.054,0.063l-0.036,0.081c0,0.009 -0.009,0.009 -0.009,0.027l-0.027,0.261l-0.018,0.323l0,0.018l0.018,0.126l-0.018,0.081l0,0.036l0.018,0.144l-0.018,0.108l0,0.027l0.009,0.144l0.018,0.134l0,0.135l-0.027,0.108l0,0.036l0.018,0.144l0.009,0.125l-0.009,0.154l0.009,0.125l0,0.117l-0.009,0.162l-0.018,0.225l0.009,0.135l-0.036,0.225l-0.117,0.233l-0.118,0.117l-0.261,-0.027l-0.136,-0.117l-0.063,-0.206l-0.018,-0.207c0,-0.009 -0.009,-0.018 -0.009,-0.027l-0.027,-0.099l0.018,-0.252l0.009,-0.135l0,-0.036l-0.018,-0.116l0.009,-0.135l0,-0.036l-0.018,-0.108l0.009,-0.144l0.009,-0.117l0,-0.117l0,-0.018l-0.027,-0.152l0.018,-0.288l0,-0.099l0.018,-0.126l0,-0.036l-0.009,-0.135l0.009,-0.287l-0.027,-0.27l0.009,-0.09c0,-0.009 0,-0.036 -0.009,-0.045l-0.036,-0.09c0,-0.009 -0.018,-0.018 -0.018,-0.018l-0.027,-0.045c-0.009,-0.018 -0.036,-0.027 -0.054,-0.036l-0.118,-0.045l-0.09,-0.027c-0.009,-0.009 -0.036,-0.009 -0.045,-0.009l-0.207,0.018l-0.153,-0.009l-0.019,0l-0.207,0l-0.181,-0.027l-0.225,-0.054l-0.072,-0.063l-0.082,-0.098l0,-0.288l0.064,-0.072l0.144,-0.099l0.208,-0.063l0.216,0.009l0.018,0l0.225,-0.027l0.136,0.009l0.117,0.027l0.018,0.009l0.127,0c0.008,0 0.018,-0.009 0.026,-0.009l0.118,-0.036l0.108,0.027l0.018,0.009l0.154,0l0.108,-0.018Zm4.448,1.573l-0.018,-0.215l-0.009,-0.162l-0.009,-0.108l0.036,-0.108l0,-0.045l-0.027,-0.126l0,-0.279l0.054,-0.287l0.117,-0.09l0.108,-0.072l0.253,0l0.108,0.054l0.099,0.117l0.055,0.233l0,0.252l-0.019,0.279l0,0.242l0.01,0.136l-0.01,0.134l0,0.126l0.028,0.144l-0.018,0.099l-0.01,0.323l0.036,0.288l0.01,0.018l0.036,0.108l0.018,0.117c0,0.009 0.018,0.027 0.027,0.045l0.054,0.063l0.036,0.098c0,0.01 0.009,0.028 0.018,0.036l0.091,0.1l0.044,0.098l0.028,0.036l0.198,0.153l0.081,0.081l0.028,0.018l0.09,0.045l0.099,0.072c0,0 0.009,0 0.018,0.009l0.126,0.054l0.018,0l0.127,0.027l0.018,0l0.09,-0.009l0.27,0.036c0.009,0 0.019,0.009 0.037,0l0.099,-0.027l0.117,-0.027l0.136,-0.018c0.008,0 0.026,0 0.036,-0.009l0.117,-0.063l0.072,-0.027c0.009,-0.009 0.009,-0.018 0.018,-0.018l0.108,-0.081l0.126,-0.081l0.01,-0.009l0.081,-0.081l0.09,-0.099l0.072,-0.044c0.018,-0.018 0.036,-0.046 0.045,-0.064l0.018,-0.08l0.072,-0.117c0,-0.009 0.01,-0.018 0.01,-0.018l0.036,-0.108l0.036,-0.126l0.054,-0.27l0.018,-0.153l0.009,-0.287l-0.009,-0.144l-0.009,-0.099l-0.018,-0.162l0.027,-0.117l0,-0.026l0,-0.136l0,-0.018l-0.027,-0.098l0.036,-0.144l0,-0.036l-0.018,-0.243l0.018,-0.099l0.027,-0.215l0.063,-0.189l0.118,-0.117l0.324,-0.009l0.127,0.108l0.099,0.233l0.018,0.225l0.009,0.261l-0.018,0.108l-0.009,0.171l0.009,0.108l-0.018,0.143l0,0.019l0.009,0.107l0.009,0.144l0.009,0.153l-0.009,0.135l-0.018,0.288l-0.018,0.161l0,0.126l-0.055,0.288l-0.026,0.125l-0.046,0.144l-0.054,0.108l-0.153,0.27l-0.063,0.09l-0.082,0.099c0,0 -0.018,0 -0.018,0.009l-0.072,0.135l-0.198,0.188l-0.099,0.036l-0.018,0.018l-0.127,0.1l-0.108,0.044l-0.145,0.072l-0.117,0.045c0,0 -0.009,0 -0.018,0.009l-0.09,0.072l-0.153,0.018l-0.127,0.036l-0.153,0.018l-0.126,0.027l-0.127,-0.018l-0.171,-0.009l-0.252,-0.009l-0.145,-0.018l-0.135,-0.045l-0.136,-0.063c-0.009,-0.009 -0.018,-0.009 -0.027,-0.009l-0.099,-0.009l-0.126,-0.081l-0.154,-0.09l-0.117,-0.054l-0.072,-0.081l-0.009,-0.009l-0.226,-0.179l-0.099,-0.108l-0.081,-0.09l-0.036,-0.108c0,-0.009 -0.018,-0.027 -0.027,-0.036l-0.064,-0.072l-0.063,-0.144l-0.054,-0.116l-0.063,-0.126l-0.063,-0.117l-0.009,-0.135l-0.027,-0.117l-0.009,-0.243l-0.018,-0.17l-0.027,-0.217l0.018,-0.125l0,-0.018l0,-0.135l0.009,-0.153l0,-0.018Zm6.811,0.81l0.018,-0.27l-0.008,-0.108l0.018,-0.153l0,-0.036l-0.028,-0.099l0.01,-0.144l0.027,-0.126l0,-0.279l-0.009,-0.017l-0.028,-0.153l0.028,-0.099l0.009,-0.018l0,-0.315l0.027,-0.314l0.063,-0.108l0.135,-0.081l0.226,-0.045l0.306,-0.018l0.091,0.027c0.018,0.009 0.027,0.009 0.036,0.009l0.144,-0.009l0.108,-0.009l0.163,-0.018l0.117,0.018l0.027,0l0.135,-0.018l0.1,0.009l0.126,0.027l0.018,0l0.153,-0.009l0.127,0l0.289,-0.018l0.126,0.045l0.253,0.054l0.279,0.063l0.117,0.081l0.109,0.054l0.117,0.081l0.09,0.081l0.091,0.089l0.081,0.126l0.072,0.108l0.072,0.126l0.045,0.09l0.126,0.261l0.01,0.134l0,0.126c0,0.009 0.008,0.018 0.008,0.027l0.036,0.153l-0.018,0.135l0,0.126l-0.036,0.144l-0.036,0.134l-0.072,0.09c-0.009,0.018 -0.018,0.018 -0.018,0.036l-0.036,0.117l-0.063,0.108l-0.09,0.126l-0.172,0.153l-0.036,0.036l-0.027,0.072l-0.126,0.153c-0.018,0.026 -0.036,0.062 -0.027,0.098l0.045,0.189c0,0.009 0.009,0.018 0.018,0.036l0.054,0.063l0.153,0.261l0.045,0.126l0.082,0.215l-0.063,0.108l-0.181,0.207l-0.099,0.036l-0.154,-0.009l-0.225,-0.162l-0.054,-0.09l-0.172,-0.242l-0.054,-0.117l-0.153,-0.252l-0.117,-0.153c-0.01,-0.018 -0.028,-0.018 -0.036,-0.027l-0.055,-0.035c-0.009,-0.01 -0.036,-0.019 -0.045,-0.019l-0.126,-0.009l-0.217,0l-0.144,-0.018l-0.171,-0.009l-0.136,0l-0.135,-0.009l-0.19,0.018l-0.198,0.036c-0.009,0 -0.018,0.009 -0.027,0.009l-0.063,0.036c-0.018,0.009 -0.028,0.018 -0.036,0.036l-0.036,0.063c-0.01,0.009 -0.01,0.036 -0.01,0.045l-0.018,0.252l-0.009,0.135l-0.008,0.233l-0.163,0.225l-0.117,0.054l-0.28,-0.054l-0.09,-0.135l-0.072,-0.27l-0.036,-0.251l0.027,-0.108l0,-0.045l-0.037,-0.144l0.037,-0.099l0,-0.045l0,-0.126l-0.019,-0.134l-0.018,-0.306l0.028,-0.099l0,-0.045l-0.018,-0.072l-0.01,-0.153Zm1.877,-1.573l-0.244,0.009l-0.144,-0.018l-0.153,-0.009l-0.018,0l-0.235,0.036l-0.135,0.036c-0.036,0.009 -0.072,0.027 -0.081,0.063l-0.064,0.153c0,0.009 -0.009,0.018 -0.009,0.036l-0.009,0.161l0,0.279l0.009,0.018l0.028,0.126l-0.019,0.126l-0.009,0.126l0.009,0.171l0.019,0.153l0.035,0.126c0,0.017 0.019,0.017 0.028,0.035l0.045,0.054c0.009,0.018 0.027,0.018 0.045,0.027l0.135,0.054c0.018,0.009 0.027,0 0.036,0l0.153,0l0.145,-0.009l0.117,0.018l0.145,0l0.099,-0.018l0.153,0.009l0.108,0l0.109,-0.009l0.271,-0.009l0.027,0l0.261,-0.09l0.117,-0.027c0.018,-0.009 0.028,-0.009 0.036,-0.018l0.082,-0.072c0.009,-0.009 0.018,-0.009 0.027,-0.027l0.045,-0.09l0.154,-0.197c0.008,-0.018 0.018,-0.027 0.018,-0.054l0.008,-0.081l0.018,-0.117l0,-0.018l-0.008,-0.234l-0.01,-0.027l-0.054,-0.233c0,-0.018 -0.018,-0.045 -0.027,-0.054l-0.072,-0.063l-0.063,-0.09l-0.027,-0.027l-0.091,-0.063l-0.09,-0.045c-0.009,-0.009 -0.018,-0.009 -0.018,-0.009l-0.126,-0.054l-0.217,-0.045l-0.018,0l-0.279,-0.009l-0.099,-0.018l-0.028,0l-0.135,0.018Zm4.52,1.546l0.019,-0.26l-0.019,-0.126l0.027,-0.296l-0.008,-0.126l-0.028,-0.144l0.009,-0.144l0,-0.018l-0.018,-0.126l0.018,-0.117l0.019,-0.171l-0.019,-0.269l0.073,-0.333l0.072,-0.09l0.126,-0.072l0.271,-0.09l0.297,-0.009l0.109,0.018l0.018,0l0.144,-0.009l0.09,0.018l0.443,0l0.126,-0.036l0.153,0.009l0.117,0l0.145,0.018l0.126,-0.009l0.108,0.009l0.018,0l0.136,-0.018l0.144,0l0.144,0.009l0.127,0.018l0.027,0l0.207,-0.018l0.145,0.018l0.216,0l0.253,0.153l0.081,0.126l-0.045,0.243l-0.072,0.107l-0.19,0.135l-0.316,0l-0.243,0.027l-0.127,-0.027l-0.036,0l-0.117,0.018l-0.144,-0.027l-0.027,0l-0.135,0.018l-0.1,0.009l-0.153,-0.027l-0.027,0l-0.1,0.009l-0.135,0l-0.018,0l-0.135,0.027l-0.135,-0.027l-0.046,0l-0.108,0.018l-0.316,0.018l-0.243,0.036c-0.018,0 -0.036,0.018 -0.055,0.027l-0.035,0.027c-0.019,0.018 -0.036,0.036 -0.036,0.063l-0.037,0.198l-0.018,0.162l0,0.027l0.018,0.116l0,0.018l0.081,0.234c0.01,0.036 0.055,0.072 0.091,0.081l0.189,0.045l0.018,0.009l0.28,0l0.099,0.018l0.045,0l0.117,-0.036l0.163,0.018l0.135,0l0.136,-0.018l0.271,0.045l0.216,0.009l0.234,0.063l0.082,0.144l0.017,0.27l-0.062,0.08l-0.082,0.081l-0.207,0.099l-0.524,0.018l-0.135,-0.009l-0.018,0l-0.117,0l-0.145,0.018l-0.09,-0.027c-0.018,-0.009 -0.036,-0.009 -0.054,0l-0.108,0.027l-0.469,0.018c-0.018,0 -0.046,0.009 -0.055,0.018l-0.035,0.027c-0.028,0.018 -0.046,0.054 -0.046,0.081l-0.027,0.243l0,0.018l0.009,0.134l0,0.135l0.064,0.225c0.008,0.045 0.044,0.063 0.081,0.081l0.198,0.072c0.009,0.009 0.027,0.009 0.036,0.009l0.307,0.009l0.144,0.009l0.019,0l0.126,-0.018l0.108,0.009l0.162,0l0.127,-0.018l0.108,0.027l0.045,0l0.127,-0.027l0.117,0l0.144,-0.009l0.144,0.027l0.018,0l0.253,-0.018l0.262,0.018l0.126,0l0.262,0.09l0.072,0.081l0.099,0.279l-0.199,0.224l-0.261,0.072l-0.433,0l-0.153,0.027l-0.136,-0.018l-0.099,0l-0.018,0l-0.126,0.018l-0.154,-0.027l-0.108,0c-0.009,0 -0.018,0.009 -0.027,0.009l-0.09,0.027l-0.127,-0.027l-0.036,0l-0.135,0.036l-0.136,-0.027l-0.008,-0.009l-0.118,0l-0.018,0.009l-0.117,0.027l-0.099,-0.018l-0.018,0l-0.154,0.009l-0.126,-0.027l-0.126,0l-0.136,0.018l-0.288,0.009l-0.28,-0.081l-0.072,-0.099c0,-0.009 -0.018,-0.018 -0.018,-0.018l-0.1,-0.099l-0.008,-0.287l0,-0.306l0,-0.027l-0.037,-0.099l0.027,-0.135l0,-0.036l-0.027,-0.107l0.018,-0.126l0,-0.019l-0.009,-0.126l-0.009,-0.143l0.037,-0.135l0,-0.036l-0.019,-0.099l0,-0.153Z" style="fill:#252f4c;"/><rect x="44.552" y="10.143" width="0.76" height="29.898" style="fill:#565d74;"/></svg>